<?xml version="1.0" encoding="utf-8"?>
<!-- Generator: Adobe Illustrator 16.2.0, SVG Export Plug-In . SVG Version: 6.00 Build 0)  -->
<!DOCTYPE svg PUBLIC "-//W3C//DTD SVG 1.1//EN" "http://www.w3.org/Graphics/SVG/1.1/DTD/svg11.dtd">
<svg version="1.1" id="Layer_1" xmlns="http://www.w3.org/2000/svg" xmlns:xlink="http://www.w3.org/1999/xlink" x="0px" y="0px"
	 width="32px" height="32px" viewBox="0 0 32 32" enable-background="new 0 0 32 32" xml:space="preserve">
<path fill="none" d="M30.821,26.408c0,2.762-2.239,5-5,5h-20c-2.762,0-5-2.238-5-5v-20c0-2.761,2.238-5,5-5h20c2.761,0,5,2.238,5,5
	V26.408z"/>
<g>
	<path fill="#993333" d="M20.287,16.274c0.49-0.137,1.115-0.324,1.904-0.578c6.396-2.051,5.598-10,5.598-10H24.43H22.82v-1H8.821v1
		H7.213H3.854c0,0-0.807,7.979,5.598,10c0.784,0.248,1.406,0.434,1.898,0.568c0.97,1.18,2.164,2.018,3.472,2.307v7.158
		c-3.391,0.209-6,1.457-6,2.967h14c0-1.51-2.609-2.758-6-2.967v-7.158C18.127,18.282,19.318,17.45,20.287,16.274z M22.82,9.002
		V6.696h1.609h2.396c-0.014,1.986-0.531,6.637-4.939,8.049c-0.252,0.08-0.475,0.15-0.688,0.217c1.012-1.73,1.623-3.861,1.623-5.959
		H22.82z M9.753,14.743C5.34,13.348,4.828,8.682,4.817,6.696h2.396h1.608v2.307c0,2.098,0.609,4.227,1.621,5.955
		C10.229,14.891,10.004,14.821,9.753,14.743z M15.822,13.545l-3.091,2.15l1.091-3.602l-3-2.277l3.764-0.076l1.236-3.555l1.236,3.555
		l3.764,0.076l-3,2.277l1.09,3.602L15.822,13.545z"/>
</g>
</svg>
