<?xml version="1.0" encoding="utf-8"?>
<!-- Generator: Adobe Illustrator 16.2.0, SVG Export Plug-In . SVG Version: 6.00 Build 0)  -->
<!DOCTYPE svg PUBLIC "-//W3C//DTD SVG 1.1//EN" "http://www.w3.org/Graphics/SVG/1.1/DTD/svg11.dtd">
<svg version="1.1" id="Layer_1" xmlns="http://www.w3.org/2000/svg" xmlns:xlink="http://www.w3.org/1999/xlink" x="0px" y="0px"
	 width="32px" height="32px" viewBox="0 0 32 32" enable-background="new 0 0 32 32" xml:space="preserve">
<path fill="none" d="M30.821,26.408c0,2.762-2.239,5-5,5h-20c-2.762,0-5-2.238-5-5v-20c0-2.761,2.238-5,5-5h20c2.761,0,5,2.238,5,5
	V26.408z"/>
<g>
	<path fill="#993333" d="M8.393,23.363v3.6h-3.6v-3.6H8.393 M10.192,21.563h-7.2v7.2h7.2V21.563L10.192,21.563z"/>
	<path fill="#993333" d="M26.393,23.363v3.6h-3.6v-3.6H26.393 M28.192,21.563h-7.199v7.2h7.199V21.563L28.192,21.563z"/>
	<g>
		<path fill="#993333" d="M17.393,23.363v3.6h-3.6v-3.6H17.393 M19.192,21.563h-7.2v7.2h7.2V21.563L19.192,21.563z"/>
		<path fill="#993333" d="M17.393,5.363v3.6h-3.6v-3.6H17.393 M19.192,3.563h-7.2v7.2h7.2V3.563L19.192,3.563z"/>
		<polygon fill="#666766" points="16.493,15.263 16.493,11.663 14.692,11.663 14.692,15.263 5.692,15.263 5.692,20.663 
			7.492,20.663 7.492,17.063 14.692,17.063 14.692,20.663 16.493,20.663 16.493,17.063 23.692,17.063 23.692,20.663 25.493,20.663 
			25.493,15.263 		"/>
	</g>
</g>
</svg>
