<?xml version="1.0" encoding="utf-8"?>
<!-- Generator: Adobe Illustrator 16.2.0, SVG Export Plug-In . SVG Version: 6.00 Build 0)  -->
<!DOCTYPE svg PUBLIC "-//W3C//DTD SVG 1.1//EN" "http://www.w3.org/Graphics/SVG/1.1/DTD/svg11.dtd">
<svg version="1.1" id="Layer_1" xmlns="http://www.w3.org/2000/svg" xmlns:xlink="http://www.w3.org/1999/xlink" x="0px" y="0px"
	 width="32px" height="32px" viewBox="0 0 32 32" enable-background="new 0 0 32 32" xml:space="preserve">
<path fill="none" d="M30.821,26.408c0,2.762-2.239,5-5,5h-20c-2.762,0-5-2.238-5-5v-20c0-2.761,2.238-5,5-5h20c2.761,0,5,2.238,5,5
	V26.408z"/>
<g>
	<rect x="7" y="14" opacity="0.8" fill="#993333" width="3" height="9"/>
	<rect x="12" y="14" opacity="0.8" fill="#993333" width="3" height="9"/>
	<rect x="17" y="14" opacity="0.8" fill="#993333" width="3" height="9"/>
	<rect x="22" y="14" opacity="0.8" fill="#993333" width="3" height="9"/>
	<rect x="5" y="24" fill="#993333" width="22" height="1"/>
	<rect x="3" y="26" fill="#993333" width="26" height="1"/>
	<polygon fill="#993333" points="17,5 16,5 15,5 4,12 4,13 28,13 28,12 	"/>
</g>
</svg>
