<?xml version="1.0" encoding="utf-8"?>
<!-- Generator: Adobe Illustrator 16.2.0, SVG Export Plug-In . SVG Version: 6.00 Build 0)  -->
<!DOCTYPE svg PUBLIC "-//W3C//DTD SVG 1.1//EN" "http://www.w3.org/Graphics/SVG/1.1/DTD/svg11.dtd">
<svg version="1.1" id="Layer_1" xmlns="http://www.w3.org/2000/svg" xmlns:xlink="http://www.w3.org/1999/xlink" x="0px" y="0px"
	 width="32px" height="32px" viewBox="0 0 32 32" enable-background="new 0 0 32 32" xml:space="preserve">
<path fill="none" stroke="#579FD1" stroke-width="0.25" stroke-miterlimit="10" d="M30.821,26.408c0,2.762-2.239,5-5,5h-20
	c-2.762,0-5-2.238-5-5v-20c0-2.761,2.238-5,5-5h20c2.761,0,5,2.238,5,5V26.408z"/>
<g>
	<path fill="#57A0D2" d="M5.053,19.242c0,0.291-0.238,0.532-0.531,0.532H3.29c-0.293,0-0.533-0.241-0.533-0.532v-1.324
		c0-0.293,0.24-0.532,0.533-0.532h1.231c0.293,0,0.531,0.239,0.531,0.532V19.242z"/>
	<path fill="#57A0D2" d="M3.499,19.519l-1.321,8.351c0,0,0.421-0.244,0.67-0.275c0.12-0.017,0.055,0.543,0.167,0.581
		c0.324,0.11,0.5-0.433,0.881-0.433c0.229,0,0.485,0.551,0.723,0.491c0.239-0.059,0.309-0.341,0.392-0.523
		c0.083-0.185,0.739,0.112,0.739,0.112l-1.414-8.304H3.499z"/>
	<g>
		<path fill="#57A0D2" d="M3.719,17.611c-0.442-4.083,1.689-5.201,1.769-5.246l0.204,0.35c-0.017,0.011-1.98,1.056-1.569,4.854
			L3.719,17.611L3.719,17.611z"/>
	</g>
	<path fill="#57A0D2" d="M16.104,18.47c-0.065,0-0.132-0.012-0.194-0.036l-8.066-3.156l-0.922,8.182c0,0,3.642-2.246,4.688-2.246
		c1.047,0,4.186,2.744,4.186,2.744s3.331-2.434,4.725-2.434c1.396,0,3.915,1.936,3.915,1.936l-0.372-7.988l-7.768,2.965
		C16.234,18.458,16.168,18.47,16.104,18.47z"/>
	<polygon fill="#57A0D2" points="16.095,6.558 1.377,11.372 10.379,15.127 16.106,17.111 21.98,15.127 30.265,11.372 	"/>
</g>
</svg>
