<?xml version="1.0" encoding="utf-8"?>
<!-- Generator: Adobe Illustrator 16.2.0, SVG Export Plug-In . SVG Version: 6.00 Build 0)  -->
<!DOCTYPE svg PUBLIC "-//W3C//DTD SVG 1.1//EN" "http://www.w3.org/Graphics/SVG/1.1/DTD/svg11.dtd">
<svg version="1.1" id="Layer_1" xmlns="http://www.w3.org/2000/svg" xmlns:xlink="http://www.w3.org/1999/xlink" x="0px" y="0px"
	 width="32px" height="32px" viewBox="0 0 32 32" enable-background="new 0 0 32 32" xml:space="preserve">
<path fill="none" d="M30.821,26.408c0,2.762-2.239,5-5,5h-20c-2.762,0-5-2.238-5-5v-20c0-2.761,2.238-5,5-5h20c2.761,0,5,2.238,5,5
	V26.408z"/>
<g>
	<path fill="#993333" d="M10.821,10.702c0,0.553-0.447,1-1,1h-4c-0.553,0-1-0.447-1-1v-4c0-0.553,0.447-1,1-1h4c0.553,0,1,0.447,1,1
		V10.702z"/>
	<path fill="#666766" d="M18.821,10.702c0,0.553-0.447,1-1,1h-4c-0.553,0-1-0.447-1-1v-4c0-0.553,0.447-1,1-1h4c0.553,0,1,0.447,1,1
		V10.702z"/>
	<path fill="#993333" d="M26.821,10.702c0,0.553-0.447,1-1,1h-4c-0.553,0-1-0.447-1-1v-4c0-0.553,0.447-1,1-1h4c0.553,0,1,0.447,1,1
		V10.702z"/>
	<path fill="#666766" d="M10.821,18.703c0,0.553-0.447,1-1,1h-4c-0.553,0-1-0.447-1-1v-4.001c0-0.553,0.447-1,1-1h4
		c0.553,0,1,0.447,1,1V18.703z"/>
	<path fill="#993333" d="M18.821,18.703c0,0.553-0.447,1-1,1h-4c-0.553,0-1-0.447-1-1v-4.001c0-0.553,0.447-1,1-1h4
		c0.553,0,1,0.447,1,1V18.703z"/>
	<path fill="#666766" d="M26.821,18.703c0,0.553-0.447,1-1,1h-4c-0.553,0-1-0.447-1-1v-4.001c0-0.553,0.447-1,1-1h4
		c0.553,0,1,0.447,1,1V18.703z"/>
	<path fill="#993333" d="M10.821,26.703c0,0.553-0.447,1-1,1h-4c-0.553,0-1-0.447-1-1v-4c0-0.553,0.447-1,1-1h4c0.553,0,1,0.447,1,1
		V26.703z"/>
	<path fill="#666766" d="M18.821,26.703c0,0.553-0.447,1-1,1h-4c-0.553,0-1-0.447-1-1v-4c0-0.553,0.447-1,1-1h4c0.553,0,1,0.447,1,1
		V26.703z"/>
	<path fill="#993333" d="M26.821,26.703c0,0.553-0.447,1-1,1h-4c-0.553,0-1-0.447-1-1v-4c0-0.553,0.447-1,1-1h4c0.553,0,1,0.447,1,1
		V26.703z"/>
</g>
</svg>
