<?xml version="1.0" encoding="utf-8"?>
<!-- Generator: Adobe Illustrator 16.2.0, SVG Export Plug-In . SVG Version: 6.00 Build 0)  -->
<!DOCTYPE svg PUBLIC "-//W3C//DTD SVG 1.1//EN" "http://www.w3.org/Graphics/SVG/1.1/DTD/svg11.dtd">
<svg version="1.1" id="Layer_1" xmlns="http://www.w3.org/2000/svg" xmlns:xlink="http://www.w3.org/1999/xlink" x="0px" y="0px"
	 width="32px" height="32px" viewBox="0 0 32 32" enable-background="new 0 0 32 32" xml:space="preserve">
<path fill="none" d="M30.821,26.408c0,2.762-2.239,5-5,5h-20c-2.762,0-5-2.238-5-5v-20c0-2.761,2.238-5,5-5h20c2.761,0,5,2.238,5,5
	V26.408z"/>
<path fill="#993333" d="M24.469,7.242L11.324,3.427c-0.146-0.041-0.301-0.014-0.426,0.08L7.014,6.464
	c-0.17,0.129-0.227,0.346-0.17,0.539v18.462l13.602,3.941V10.673L7.887,7.033l3.404-2.592l12.557,3.646V26.45
	c0,0.273,0.219,0.494,0.484,0.494c0.271,0,0.488-0.221,0.488-0.494V7.716C24.82,7.496,24.676,7.302,24.469,7.242z"/>
<polygon opacity="0.3" fill="#993333" points="20.982,28.507 23.256,26.944 23.256,8.529 11.426,5.033 8.949,6.878 20.99,10.166 "/>
</svg>
