<?xml version="1.0" encoding="utf-8"?>
<!-- Generator: Adobe Illustrator 16.2.0, SVG Export Plug-In . SVG Version: 6.00 Build 0)  -->
<!DOCTYPE svg PUBLIC "-//W3C//DTD SVG 1.1//EN" "http://www.w3.org/Graphics/SVG/1.1/DTD/svg11.dtd">
<svg version="1.1" id="Layer_1" xmlns="http://www.w3.org/2000/svg" xmlns:xlink="http://www.w3.org/1999/xlink" x="0px" y="0px"
	 width="32px" height="32px" viewBox="0 0 32 32" enable-background="new 0 0 32 32" xml:space="preserve">
<path fill="none" d="M30.821,26.408c0,2.762-2.239,5-5,5h-20c-2.762,0-5-2.238-5-5v-20c0-2.761,2.238-5,5-5h20c2.761,0,5,2.238,5,5
	V26.408z"/>
<path fill="#993333" d="M23.821,11.407c0-4.418-3.58-8-8-8c-4.418,0-8,3.582-8,8c0,1.459,0.398,2.822,1.08,4h-0.01l6.93,14.001
	l6.932-14.001h-0.01C23.427,14.229,23.821,12.866,23.821,11.407z M15.824,15.406c-2.209,0-4-1.791-4-4c0-2.209,1.79-4,4-4
	c2.208,0,4,1.791,4,4C19.823,13.615,18.032,15.406,15.824,15.406z"/>
</svg>
