<?xml version="1.0" encoding="utf-8"?>
<!-- Generator: Adobe Illustrator 16.2.0, SVG Export Plug-In . SVG Version: 6.00 Build 0)  -->
<!DOCTYPE svg PUBLIC "-//W3C//DTD SVG 1.1//EN" "http://www.w3.org/Graphics/SVG/1.1/DTD/svg11.dtd">
<svg version="1.1" id="Layer_1" xmlns="http://www.w3.org/2000/svg" xmlns:xlink="http://www.w3.org/1999/xlink" x="0px" y="0px"
	 width="32px" height="32px" viewBox="0 0 32 32" enable-background="new 0 0 32 32" xml:space="preserve">
<path fill="none" d="M30.821,26.408c0,2.762-2.239,5-5,5h-20c-2.762,0-5-2.238-5-5v-20c0-2.761,2.238-5,5-5h20c2.761,0,5,2.238,5,5
	V26.408z"/>
<path fill="#993333" d="M28.063,25.235l-0.934-2.055l-2.709,0.98l-3.504-7.473h-8.967l-0.246-2.476h5.385v-2.568H11.45l-0.229-2.31
	c1.581-0.258,2.79-1.627,2.79-3.282c0-1.839-1.49-3.33-3.33-3.33c-1.839,0-3.329,1.491-3.329,3.33c0,0.956,0.404,1.815,1.051,2.422
	l0.479,4.719c-3.052,1.677-4.942,4.823-4.942,8.257c0,5.112,4.158,9.272,9.271,9.272c3.824,0,7.199-2.409,8.632-5.744l1.084,2.311
	L28.063,25.235L28.063,25.235z M13.209,28.435c-3.85,0-6.982-3.133-6.982-6.983c0-2.265,1.094-4.366,2.912-5.712l0.334,3.285h9.576
	l1.227,2.617C20.17,25.341,16.98,28.435,13.209,28.435L13.209,28.435z"/>
</svg>
