<?xml version="1.0" encoding="utf-8"?>
<!-- Generator: Adobe Illustrator 16.2.0, SVG Export Plug-In . SVG Version: 6.00 Build 0)  -->
<!DOCTYPE svg PUBLIC "-//W3C//DTD SVG 1.1//EN" "http://www.w3.org/Graphics/SVG/1.1/DTD/svg11.dtd">
<svg version="1.1" id="Layer_1" xmlns="http://www.w3.org/2000/svg" xmlns:xlink="http://www.w3.org/1999/xlink" x="0px" y="0px"
	 width="32px" height="32px" viewBox="0 0 32 32" enable-background="new 0 0 32 32" xml:space="preserve">
<path fill="none" d="M30.821,26.408c0,2.762-2.239,5-5,5h-20c-2.762,0-5-2.238-5-5v-20c0-2.761,2.238-5,5-5h20c2.761,0,5,2.238,5,5
	V26.408z"/>
<g>
	<path fill="#993333" d="M14.443,22.228c-0.01-0.363-0.016-0.635-0.016-0.816c0-1.07,0.152-1.994,0.455-2.771
		c0.221-0.584,0.58-1.174,1.074-1.77c0.363-0.434,1.017-1.067,1.96-1.9c0.944-0.832,1.557-1.496,1.839-1.99
		c0.283-0.494,0.424-1.034,0.424-1.62c0-1.06-0.414-1.991-1.24-2.792c-0.828-0.803-1.842-1.204-3.043-1.204
		c-1.16,0-2.129,0.363-2.906,1.09s-1.287,1.862-1.529,3.406l-2.8-0.333c0.252-2.068,1.001-3.653,2.248-4.753
		c1.246-1.1,2.894-1.65,4.942-1.65c2.169,0,3.899,0.59,5.191,1.771c1.291,1.181,1.938,2.609,1.938,4.284
		c0,0.969-0.227,1.862-0.682,2.679c-0.453,0.817-1.342,1.812-2.664,2.981c-0.888,0.788-1.468,1.368-1.74,1.741
		c-0.272,0.375-0.475,0.803-0.605,1.287s-0.207,1.271-0.227,2.361H14.443z M14.277,27.692v-3.104h3.103v3.104H14.277z"/>
</g>
</svg>
