<?xml version="1.0" encoding="utf-8"?>
<!-- Generator: Adobe Illustrator 16.2.0, SVG Export Plug-In . SVG Version: 6.00 Build 0)  -->
<!DOCTYPE svg PUBLIC "-//W3C//DTD SVG 1.1//EN" "http://www.w3.org/Graphics/SVG/1.1/DTD/svg11.dtd">
<svg version="1.1" id="Layer_1" xmlns="http://www.w3.org/2000/svg" xmlns:xlink="http://www.w3.org/1999/xlink" x="0px" y="0px"
	 width="32px" height="32px" viewBox="0 0 32 32" enable-background="new 0 0 32 32" xml:space="preserve">
<path fill="none" d="M30.821,26.408c0,2.762-2.239,5-5,5h-20c-2.762,0-5-2.238-5-5v-20c0-2.761,2.238-5,5-5h20c2.761,0,5,2.238,5,5
	V26.408z"/>
<polygon fill="#FFFFFF" points="23.518,13.408 23.518,6.408 19.518,6.408 19.518,9.408 15.517,5.407 4.518,16.407 6.517,16.407 
	6.517,27.408 12.518,27.408 12.518,18.408 18.518,18.408 18.518,27.408 24.518,27.408 24.518,16.407 26.518,16.407 "/>
<rect x="13.518" y="19.41" opacity="0.5" fill="#EEEEEE" width="4" height="8"/>
</svg>
