<?xml version="1.0" encoding="utf-8"?>
<!-- Generator: Adobe Illustrator 16.2.0, SVG Export Plug-In . SVG Version: 6.00 Build 0)  -->
<!DOCTYPE svg PUBLIC "-//W3C//DTD SVG 1.1//EN" "http://www.w3.org/Graphics/SVG/1.1/DTD/svg11.dtd">
<svg version="1.1" id="Layer_1" xmlns="http://www.w3.org/2000/svg" xmlns:xlink="http://www.w3.org/1999/xlink" x="0px" y="0px"
	 width="32px" height="32px" viewBox="0 0 32 32" enable-background="new 0 0 32 32" xml:space="preserve">
<path fill="none" d="M30.821,26.408c0,2.762-2.239,5-5,5h-20c-2.762,0-5-2.238-5-5v-20c0-2.761,2.238-5,5-5h20c2.761,0,5,2.238,5,5
	V26.408z"/>
<g>
	<rect x="19.821" y="4.406" opacity="0.5" fill="#993333" width="4" height="12"/>
	<rect x="7.822" y="4.406" opacity="0.5" fill="#993333" width="4" height="12"/>
	<polygon fill="#993333" points="15.821,10.188 18.294,17.302 25.821,17.454 19.821,22.005 22.003,29.212 15.821,24.909 
		9.639,29.212 11.819,22.005 5.822,17.454 13.351,17.302 	"/>
	<polygon opacity="0.5" fill="#993333" points="15.821,7.648 17.821,13.398 17.821,4.406 13.822,4.406 13.822,13.406 	"/>
</g>
</svg>
