<?xml version="1.0" encoding="utf-8"?>
<!-- Generator: Adobe Illustrator 16.2.0, SVG Export Plug-In . SVG Version: 6.00 Build 0)  -->
<!DOCTYPE svg PUBLIC "-//W3C//DTD SVG 1.1//EN" "http://www.w3.org/Graphics/SVG/1.1/DTD/svg11.dtd">
<svg version="1.1" id="Layer_1" xmlns="http://www.w3.org/2000/svg" xmlns:xlink="http://www.w3.org/1999/xlink" x="0px" y="0px"
	 width="32px" height="32px" viewBox="0 0 32 32" enable-background="new 0 0 32 32" xml:space="preserve">
<path fill="none" d="M30.821,26.408c0,2.762-2.239,5-5,5h-20c-2.762,0-5-2.238-5-5v-20c0-2.761,2.238-5,5-5h20c2.761,0,5,2.238,5,5
	V26.408z"/>
<g>
	<path fill="#993333" d="M24.376,5.168c-0.458-0.305-1.076-0.181-1.383,0.275c-0.309,0.457-0.186,1.077,0.27,1.387
		c0.146,0.099,3.559,2.466,3.559,7.17c0,4.614-3.312,6.369-3.447,6.439c-0.494,0.247-0.695,0.848-0.447,1.342
		c0.175,0.351,0.527,0.553,0.895,0.553c0.15,0,0.303-0.034,0.447-0.105c0.186-0.093,4.553-2.344,4.553-8.229
		C28.821,8.198,24.558,5.289,24.376,5.168z"/>
	<path fill="#993333" d="M21.376,9.001c-0.461-0.307-1.082-0.183-1.387,0.277c-0.307,0.459-0.183,1.08,0.277,1.387
		c0.015,0.011,1.555,1.062,1.555,3.168c0,1.982-1.398,2.747-1.447,2.773c-0.494,0.247-0.695,0.848-0.447,1.342
		c0.175,0.351,0.527,0.553,0.895,0.553c0.15,0,0.303-0.034,0.447-0.105c0.104-0.052,2.553-1.313,2.553-4.563
		C23.821,10.668,21.476,9.067,21.376,9.001z"/>
	<path fill="#993333" d="M4.821,13.334c0-4.614,3.311-6.369,3.447-6.439c0.494-0.247,0.694-0.848,0.447-1.342
		C8.469,5.06,7.869,4.86,7.374,5.105c-0.186,0.093-4.553,2.344-4.553,8.229c0,5.802,4.264,8.711,4.445,8.832
		c0.17,0.113,0.362,0.168,0.552,0.168c0.322,0,0.638-0.156,0.831-0.443c0.308-0.457,0.186-1.077-0.27-1.387
		C8.233,20.405,4.821,18.038,4.821,13.334z"/>
	<path fill="#993333" d="M11.268,10.728c0.494-0.247,0.694-0.848,0.447-1.342s-0.847-0.693-1.342-0.447
		c-0.104,0.052-2.553,1.313-2.553,4.563c0,3.165,2.345,4.766,2.445,4.832c0.17,0.113,0.363,0.168,0.554,0.168
		c0.323,0,0.64-0.156,0.833-0.445c0.306-0.459,0.182-1.08-0.277-1.387c-0.015-0.011-1.555-1.062-1.555-3.168
		C9.821,11.519,11.219,10.754,11.268,10.728z"/>
	<path fill="#993333" d="M16.821,15.723c0.595-0.347,1-0.984,1-1.723c0-1.104-0.896-2-2-2c-1.104,0-2,0.896-2,2
		c0,0.738,0.405,1.376,1,1.723V22c0,2-2,7-2,7h6c0,0-2-5-2-7V15.723z"/>
</g>
</svg>
