<?xml version="1.0" encoding="utf-8"?>
<!-- Generator: Adobe Illustrator 16.2.0, SVG Export Plug-In . SVG Version: 6.00 Build 0)  -->
<!DOCTYPE svg PUBLIC "-//W3C//DTD SVG 1.1//EN" "http://www.w3.org/Graphics/SVG/1.1/DTD/svg11.dtd">
<svg version="1.1" id="Layer_1" xmlns="http://www.w3.org/2000/svg" xmlns:xlink="http://www.w3.org/1999/xlink" x="0px" y="0px"
	 width="32px" height="32px" viewBox="0 0 32 32" enable-background="new 0 0 32 32" xml:space="preserve">
<path fill="none" d="M30.821,26.408c0,2.762-2.239,5-5,5h-20c-2.762,0-5-2.238-5-5v-20c0-2.761,2.238-5,5-5h20c2.761,0,5,2.238,5,5
	V26.408z"/>
<g>
	<path fill="#993333" d="M15.821,18.021L26.999,8.71c-0.059-0.012-0.113-0.036-0.178-0.036h-22c-0.06,0-0.115,0.024-0.176,0.036
		L15.821,18.021z"/>
	<path fill="#666766" d="M27.821,9.674c0-0.105-0.029-0.202-0.059-0.298l-7.926,6.604l7.938,7.937
		c0.02-0.08,0.047-0.156,0.047-0.242V9.674z"/>
	<path fill="#666766" d="M3.883,9.375c-0.03,0.096-0.063,0.192-0.063,0.299v14c0,0.086,0.029,0.164,0.051,0.244l7.938-7.938
		L3.883,9.375z"/>
	<path fill="#993333" d="M19.065,16.623l-2.924,2.434c-0.092,0.078-0.205,0.117-0.321,0.117c-0.113,0-0.227-0.039-0.317-0.117
		l-2.923-2.433l-8.002,7.999c0.08,0.021,0.158,0.051,0.242,0.051h22c0.088,0,0.166-0.029,0.246-0.051L19.065,16.623z"/>
</g>
</svg>
