<?xml version="1.0" encoding="utf-8"?>
<!-- Generator: Adobe Illustrator 16.2.0, SVG Export Plug-In . SVG Version: 6.00 Build 0)  -->
<!DOCTYPE svg PUBLIC "-//W3C//DTD SVG 1.1//EN" "http://www.w3.org/Graphics/SVG/1.1/DTD/svg11.dtd">
<svg version="1.1" id="Layer_1" xmlns="http://www.w3.org/2000/svg" xmlns:xlink="http://www.w3.org/1999/xlink" x="0px" y="0px"
	 width="32px" height="32px" viewBox="0 0 32 32" enable-background="new 0 0 32 32" xml:space="preserve">
<path fill="none" d="M30.821,26.408c0,2.762-2.239,5-5,5h-20c-2.762,0-5-2.238-5-5v-20c0-2.761,2.238-5,5-5h20c2.761,0,5,2.238,5,5
	V26.408z"/>
<g>
	<path fill-rule="evenodd" clip-rule="evenodd" fill="#993333" d="M21.822,17.408v-4c0-0.552-0.447-1-1-1c-0.551,0-1,0.448-1,1v4
		c0,0.163-0.045,4-4.001,4c-3.852,0-3.996-3.595-4-4v-4c0-0.552-0.447-1-1-1c-0.551,0-1,0.448-1,1v4c0,1.92,1.082,5.419,5,5.932
		v3.068h-4c-0.551,0-1,0.448-1,1c0,0.553,0.449,1,1,1h10.001c0.553,0,1-0.447,1-1c0-0.552-0.447-1-1-1h-4.001V23.34
		C20.742,22.827,21.822,19.328,21.822,17.408z"/>
	<path fill-rule="evenodd" clip-rule="evenodd" fill="#993333" d="M15.821,20.408c1.66,0,3.001-1.343,3.001-2.999v-4h-6v-1h6V7.407
		c0-1.656-1.342-2.999-3.001-2.999c-1.656,0-3,1.342-3,2.999v10.002C12.821,19.065,14.165,20.408,15.821,20.408z"/>
</g>
</svg>
