<?xml version="1.0" encoding="utf-8"?>
<!-- Generator: Adobe Illustrator 16.2.0, SVG Export Plug-In . SVG Version: 6.00 Build 0)  -->
<!DOCTYPE svg PUBLIC "-//W3C//DTD SVG 1.1//EN" "http://www.w3.org/Graphics/SVG/1.1/DTD/svg11.dtd">
<svg version="1.1" id="Layer_1" xmlns="http://www.w3.org/2000/svg" xmlns:xlink="http://www.w3.org/1999/xlink" x="0px" y="0px"
	 width="32px" height="32px" viewBox="0 0 32 32" enable-background="new 0 0 32 32" xml:space="preserve">
<path fill="none" d="M30.821,26.408c0,2.762-2.239,5-5,5h-20c-2.762,0-5-2.238-5-5v-20c0-2.761,2.238-5,5-5h20c2.761,0,5,2.238,5,5
	V26.408z"/>
<g>
	<path fill="#993333" d="M7.258,28.049V5.142h8.641c1.521,0,2.682,0.073,3.484,0.219c1.125,0.188,2.067,0.544,2.828,1.07
		c0.76,0.526,1.372,1.263,1.836,2.211c0.463,0.948,0.695,1.99,0.695,3.125c0,1.948-0.62,3.597-1.859,4.945
		c-1.24,1.35-3.479,2.024-6.719,2.024h-5.875v9.313H7.258z M10.289,16.033h5.922c1.958,0,3.349-0.364,4.172-1.094
		c0.822-0.729,1.234-1.755,1.234-3.078c0-0.958-0.242-1.778-0.727-2.461c-0.484-0.682-1.123-1.133-1.914-1.352
		c-0.511-0.135-1.453-0.203-2.828-0.203h-5.859V16.033z"/>
</g>
</svg>
