<?xml version="1.0" encoding="utf-8"?>
<!-- Generator: Adobe Illustrator 16.2.0, SVG Export Plug-In . SVG Version: 6.00 Build 0)  -->
<!DOCTYPE svg PUBLIC "-//W3C//DTD SVG 1.1//EN" "http://www.w3.org/Graphics/SVG/1.1/DTD/svg11.dtd">
<svg version="1.1" id="Layer_1" xmlns="http://www.w3.org/2000/svg" xmlns:xlink="http://www.w3.org/1999/xlink" x="0px" y="0px"
	 width="32px" height="32px" viewBox="0 0 32 32" enable-background="new 0 0 32 32" xml:space="preserve">
<path fill="none" d="M30.821,26.408c0,2.762-2.239,5-5,5h-20c-2.762,0-5-2.238-5-5v-20c0-2.761,2.238-5,5-5h20c2.761,0,5,2.238,5,5
	V26.408z"/>
<g>
	<path fill="#993333" d="M11.519,24.338V9.309h5.669c0.998,0,1.76,0.048,2.285,0.144c0.738,0.123,1.359,0.356,1.855,0.702
		c0.5,0.346,0.9,0.829,1.205,1.451c0.303,0.623,0.455,1.305,0.455,2.051c0,1.278-0.406,2.359-1.219,3.244
		c-0.814,0.885-2.283,1.326-4.408,1.326h-3.854v6.112H11.519z M13.507,16.454h3.884c1.287,0,2.197-0.239,2.738-0.718
		c0.539-0.478,0.809-1.151,0.809-2.019c0-0.629-0.158-1.167-0.475-1.615c-0.318-0.448-0.738-0.744-1.258-0.887
		c-0.334-0.089-0.951-0.133-1.854-0.133h-3.845V16.454z"/>
</g>
<circle fill="none" stroke="#993333" stroke-width="2" stroke-miterlimit="10" cx="15.821" cy="16.596" r="14"/>
</svg>
