<?xml version="1.0" encoding="utf-8"?>
<!-- Generator: Adobe Illustrator 16.2.0, SVG Export Plug-In . SVG Version: 6.00 Build 0)  -->
<!DOCTYPE svg PUBLIC "-//W3C//DTD SVG 1.1//EN" "http://www.w3.org/Graphics/SVG/1.1/DTD/svg11.dtd">
<svg version="1.1" id="Layer_1" xmlns="http://www.w3.org/2000/svg" xmlns:xlink="http://www.w3.org/1999/xlink" x="0px" y="0px"
	 width="32px" height="32px" viewBox="0 0 32 32" enable-background="new 0 0 32 32" xml:space="preserve">
<path fill="none" d="M30.821,26.408c0,2.762-2.239,5-5,5h-20c-2.762,0-5-2.238-5-5v-20c0-2.761,2.238-5,5-5h20c2.761,0,5,2.238,5,5
	V26.408z"/>
<g>
	<path fill="#993333" d="M11.186,24.945V8.246h6.299c1.108,0,1.955,0.053,2.54,0.16c0.819,0.136,1.509,0.396,2.062,0.78
		c0.555,0.384,1.001,0.921,1.338,1.612c0.338,0.691,0.507,1.45,0.507,2.278c0,1.42-0.451,2.622-1.355,3.604
		c-0.903,0.984-2.536,1.474-4.897,1.474h-4.283v6.791H11.186z M13.395,16.185h4.316c1.43,0,2.441-0.265,3.043-0.797
		c0.599-0.531,0.898-1.279,0.898-2.244c0-0.699-0.176-1.297-0.529-1.794c-0.354-0.498-0.818-0.826-1.396-0.986
		c-0.371-0.099-1.058-0.148-2.062-0.148h-4.271V16.185z"/>
</g>
<circle fill="none" stroke="#993333" stroke-miterlimit="10" cx="15.821" cy="16.596" r="14"/>
</svg>
