<?xml version="1.0" encoding="utf-8"?>
<!-- Generator: Adobe Illustrator 16.2.0, SVG Export Plug-In . SVG Version: 6.00 Build 0)  -->
<!DOCTYPE svg PUBLIC "-//W3C//DTD SVG 1.1//EN" "http://www.w3.org/Graphics/SVG/1.1/DTD/svg11.dtd">
<svg version="1.1" id="Layer_1" xmlns="http://www.w3.org/2000/svg" xmlns:xlink="http://www.w3.org/1999/xlink" x="0px" y="0px"
	 width="32px" height="32px" viewBox="0 0 32 32" enable-background="new 0 0 32 32" xml:space="preserve">
<path fill="none" d="M30.821,26.408c0,2.762-2.239,5-5,5h-20c-2.762,0-5-2.238-5-5v-20c0-2.761,2.238-5,5-5h20c2.761,0,5,2.238,5,5
	V26.408z"/>
<path fill="#993333" d="M18.731,16.925v1.807c0.328,0.143,0.705,0.309,1.125,0.494c0.422,0.184,0.857,0.375,1.305,0.57
	c0.447,0.197,0.9,0.391,1.357,0.588c0.459,0.195,0.895,0.377,1.307,0.549c0.41,0.168,0.781,0.318,1.109,0.453
	c0.33,0.135,0.598,0.236,0.803,0.309c0.432,0.154,0.783,0.389,1.051,0.703s0.477,0.633,0.633,0.965
	c0.184,0.381,0.318,0.781,0.4,1.203v1.961h-24v-1.961c0.092-0.422,0.231-0.822,0.416-1.203c0.154-0.332,0.365-0.65,0.633-0.965
	s0.612-0.549,1.034-0.703c0.216-0.072,0.5-0.176,0.849-0.316c0.351-0.139,0.741-0.299,1.173-0.479s0.888-0.373,1.366-0.578
	c0.478-0.207,0.955-0.412,1.427-0.617c0.474-0.207,0.921-0.4,1.343-0.586c0.423-0.188,0.793-0.352,1.112-0.494v-1.76
	c-0.02-0.082-0.054-0.209-0.1-0.379c-0.047-0.17-0.095-0.342-0.147-0.518c-0.061-0.205-0.134-0.426-0.216-0.664
	c-0.298-0.556-0.535-1.185-0.71-1.89s-0.263-1.454-0.263-2.246c0-1.04,0.111-1.92,0.332-2.639c0.221-0.722,0.522-1.308,0.903-1.76
	c0.38-0.453,0.825-0.782,1.335-0.988c0.509-0.207,1.057-0.309,1.643-0.309c0.577,0,1.119,0.1,1.629,0.301
	c0.51,0.201,0.955,0.524,1.342,0.972c0.387,0.448,0.689,1.035,0.912,1.761c0.221,0.724,0.33,1.613,0.33,2.662
	c0,0.772-0.084,1.504-0.254,2.199s-0.404,1.319-0.701,1.877c-0.084,0.254-0.16,0.497-0.232,0.723
	c-0.063,0.197-0.119,0.385-0.17,0.563C18.757,16.712,18.731,16.845,18.731,16.925z"/>
</svg>
