<?xml version="1.0" encoding="utf-8"?>
<!-- Generator: Adobe Illustrator 16.2.0, SVG Export Plug-In . SVG Version: 6.00 Build 0)  -->
<!DOCTYPE svg PUBLIC "-//W3C//DTD SVG 1.1//EN" "http://www.w3.org/Graphics/SVG/1.1/DTD/svg11.dtd">
<svg version="1.1" id="Layer_1" xmlns="http://www.w3.org/2000/svg" xmlns:xlink="http://www.w3.org/1999/xlink" x="0px" y="0px"
	 width="32px" height="32px" viewBox="0 0 32 32" enable-background="new 0 0 32 32" xml:space="preserve">
<path fill="none" d="M30.821,26.408c0,2.762-2.239,5-5,5h-20c-2.762,0-5-2.238-5-5v-20c0-2.761,2.238-5,5-5h20c2.761,0,5,2.238,5,5
	V26.408z"/>
<path fill="#993333" d="M27.22,23.237L17.424,7.728c-0.882-1.396-2.323-1.396-3.204,0L4.424,23.237
	c-0.881,1.396-0.252,2.537,1.398,2.537h20C27.472,25.774,28.101,24.634,27.22,23.237z M17.821,23.983h-4v-3h4V23.983z
	 M17.821,14.983l-0.984,4.571h-2.06l-0.955-4.571v-4h4V14.983z"/>
</svg>
