<?xml version="1.0" encoding="utf-8"?>
<!-- Generator: Adobe Illustrator 16.2.0, SVG Export Plug-In . SVG Version: 6.00 Build 0)  -->
<!DOCTYPE svg PUBLIC "-//W3C//DTD SVG 1.1//EN" "http://www.w3.org/Graphics/SVG/1.1/DTD/svg11.dtd">
<svg version="1.1" id="Layer_1" xmlns="http://www.w3.org/2000/svg" xmlns:xlink="http://www.w3.org/1999/xlink" x="0px" y="0px"
	 width="32px" height="32px" viewBox="0 0 32 32" enable-background="new 0 0 32 32" xml:space="preserve">
<path fill="none" d="M30.821,26.408c0,2.762-2.239,5-5,5h-20c-2.762,0-5-2.238-5-5v-20c0-2.761,2.238-5,5-5h20c2.761,0,5,2.238,5,5
	V26.408z"/>
<g>
	<g>
		<rect x="8.501" y="7.658" fill="#993333" width="19.999" height="2.5"/>
		<rect x="8.501" y="12.658" fill="#993333" width="19.999" height="2.5"/>
		<rect x="8.501" y="17.659" fill="#993333" width="19.999" height="2.5"/>
		<rect x="8.501" y="22.659" fill="#993333" width="19.999" height="2.5"/>
	</g>
	<g>
		<rect x="3.501" y="7.658" opacity="0.5" fill="#993333" width="2.5" height="2.5"/>
		<rect x="3.501" y="12.658" opacity="0.5" fill="#993333" width="2.5" height="2.5"/>
		<rect x="3.501" y="17.659" opacity="0.5" fill="#993333" width="2.5" height="2.5"/>
		<rect x="3.501" y="22.659" opacity="0.5" fill="#993333" width="2.5" height="2.5"/>
	</g>
</g>
</svg>
