<?xml version="1.0" encoding="utf-8"?>
<!-- Generator: Adobe Illustrator 16.2.0, SVG Export Plug-In . SVG Version: 6.00 Build 0)  -->
<!DOCTYPE svg PUBLIC "-//W3C//DTD SVG 1.1//EN" "http://www.w3.org/Graphics/SVG/1.1/DTD/svg11.dtd">
<svg version="1.1" id="Layer_1" xmlns="http://www.w3.org/2000/svg" xmlns:xlink="http://www.w3.org/1999/xlink" x="0px" y="0px"
	 width="32px" height="32px" viewBox="0 0 32 32" enable-background="new 0 0 32 32" xml:space="preserve">
<path fill="none" d="M30.821,26.408c0,2.762-2.239,5-5,5h-20c-2.762,0-5-2.238-5-5v-20c0-2.761,2.238-5,5-5h20c2.761,0,5,2.238,5,5
	V26.408z"/>
<path fill="#993333" d="M28.306,7.284H3.335c-1.056,0-1.921,0.865-1.921,1.921v12.484c0,1.057,0.865,1.922,1.921,1.922H13.9v0.961
	c-0.427,0-1.73,0-1.92,0c-0.96,0-0.96,0.959-0.96,0.959h9.605c0-0.959-0.961-0.959-0.961-0.959s-1.352,0-1.922,0v-0.961h10.564
	c1.057,0,1.922-0.865,1.922-1.922V9.205C30.228,8.149,29.362,7.284,28.306,7.284z M29.267,21.689c0,0.531-0.432,0.961-0.961,0.961
	H3.335c-0.532,0-0.96-0.43-0.96-0.961V9.205c0-0.529,0.429-0.96,0.96-0.96h24.97c0.529,0,0.961,0.431,0.961,0.96V21.689z"/>
</svg>
