<?xml version="1.0" encoding="utf-8"?>
<!-- Generator: Adobe Illustrator 16.2.0, SVG Export Plug-In . SVG Version: 6.00 Build 0)  -->
<!DOCTYPE svg PUBLIC "-//W3C//DTD SVG 1.1//EN" "http://www.w3.org/Graphics/SVG/1.1/DTD/svg11.dtd">
<svg version="1.1" id="Layer_1" xmlns="http://www.w3.org/2000/svg" xmlns:xlink="http://www.w3.org/1999/xlink" x="0px" y="0px"
	 width="32px" height="32px" viewBox="0 0 32 32" enable-background="new 0 0 32 32" xml:space="preserve">
<path fill="none" d="M30.821,26.408c0,2.762-2.239,5-5,5h-20c-2.762,0-5-2.238-5-5v-20c0-2.761,2.238-5,5-5h20c2.761,0,5,2.238,5,5
	V26.408z"/>
<g>
	<path fill="#993333" d="M26.82,16.409c0-1.656,1.342-3,3-3v-6h-28v6c1.657,0,3,1.344,3,3c0,1.656-1.343,3-3,3v6h28v-6
		C28.162,19.408,26.82,18.064,26.82,16.409z M25.82,21.408c0,1.105-0.896,2-2,2h-16c-1.104,0-2-0.895-2-2v-10c0-1.104,0.896-2,2-2
		h16c1.104,0,2,0.896,2,2V21.408z"/>
	<path fill="#993333" d="M23.82,10.409h-3v12h3c0.551,0,1-0.447,1-1v-10C24.82,10.857,24.371,10.409,23.82,10.409z"/>
	<path fill="#993333" d="M7.821,10.409c-0.552,0-1,0.448-1,1v10c0,0.553,0.448,1,1,1h12v-12H7.821z M16.36,20.977l-3.039-2.18
		l-3.04,2.18l1.071-3.654l-2.949-2.306l3.701-0.078l1.217-3.605l1.216,3.605l3.699,0.078l-2.948,2.306L16.36,20.977z"/>
</g>
</svg>
