<?xml version="1.0" encoding="utf-8"?>
<!-- Generator: Adobe Illustrator 16.2.0, SVG Export Plug-In . SVG Version: 6.00 Build 0)  -->
<!DOCTYPE svg PUBLIC "-//W3C//DTD SVG 1.1//EN" "http://www.w3.org/Graphics/SVG/1.1/DTD/svg11.dtd">
<svg version="1.1" id="Layer_1" xmlns="http://www.w3.org/2000/svg" xmlns:xlink="http://www.w3.org/1999/xlink" x="0px" y="0px"
	 width="260px" height="80px" viewBox="0 0 260 80" enable-background="new 0 0 260 80" xml:space="preserve">
<g>
	<rect x="8.199" y="39.363" fill="none" stroke="#666766" stroke-width="2" stroke-miterlimit="10" width="245" height="2"/>
	<g>
		<path fill="#993333" d="M20.974,5.108l1.89-2.708h1.533l0.126,11.316h-1.386c-0.868-3.471-2.152-6.005-3.853-7.601
			c-1.701-1.596-3.657-2.394-5.869-2.394c-1.848,0-3.359,0.553-4.535,1.66S7.117,7.841,7.117,9.439c0,0.994,0.224,1.866,0.671,2.615
			c0.447,0.75,1.115,1.359,2.003,1.828c0.888,0.471,2.565,0.969,5.029,1.498c3.458,0.752,5.884,1.514,7.277,2.283
			c1.393,0.77,2.432,1.739,3.118,2.908c0.686,1.168,1.029,2.537,1.029,4.104c0,2.8-0.941,5.12-2.824,6.96
			c-1.882,1.841-4.314,2.762-7.296,2.762c-3.206,0-5.991-1.036-8.356-3.107l-2.373,2.896H3.883v-12.03h1.512
			c0.588,3.317,1.903,5.935,3.947,7.853c2.043,1.918,4.346,2.877,6.908,2.877c2.071,0,3.762-0.613,5.07-1.838
			c1.309-1.225,1.963-2.711,1.963-4.461c0-0.994-0.245-1.865-0.735-2.615c-0.49-0.748-1.267-1.378-2.331-1.889
			c-1.064-0.512-3.157-1.131-6.278-1.858c-3.43-0.812-5.767-1.722-7.013-2.729c-1.75-1.428-2.625-3.45-2.625-6.068
			c0-2.729,0.872-4.965,2.614-6.707c1.743-1.744,3.972-2.615,6.688-2.615c1.302,0,2.541,0.231,3.716,0.693
			S19.714,4.031,20.974,5.108z"/>
		<path fill="#993333" d="M44.637,2.105c2.617,0,5.07,0.689,7.359,2.068c2.288,1.379,4.08,3.304,5.375,5.773
			c1.294,2.471,1.942,5.254,1.942,8.347c0,3.094-0.651,5.886-1.953,8.378c-1.302,2.491-3.09,4.434-5.364,5.826
			c-2.275,1.393-4.686,2.089-7.233,2.089c-2.492,0-4.829-0.683-7.013-2.048c-2.184-1.363-3.937-3.316-5.26-5.857
			c-1.322-2.541-1.984-5.357-1.984-8.451c0-3.051,0.64-5.805,1.921-8.262c1.28-2.457,3.034-4.381,5.259-5.773
			S42.229,2.105,44.637,2.105z M44.973,3.722c-2.729,0-4.941,1.134-6.635,3.401c-1.694,2.268-2.541,5.963-2.541,11.086
			c0,5.558,0.868,9.399,2.604,11.526c1.735,2.129,3.884,3.191,6.446,3.191c1.792,0,3.366-0.482,4.724-1.448
			c1.357-0.966,2.439-2.499,3.244-4.599c0.805-2.1,1.208-4.856,1.208-8.271c0-3.724-0.378-6.632-1.134-8.725
			c-0.756-2.092-1.834-3.643-3.233-4.65C48.255,4.226,46.694,3.722,44.973,3.722z"/>
		<path fill="#993333" d="M62.777,2.756h14.34v1.575h-2.876c-0.77,0-1.309,0.125-1.617,0.377c-0.308,0.252-0.462,0.638-0.462,1.155
			v17.532c0,1.834,0.161,3.219,0.482,4.156c0.475,1.387,1.345,2.492,2.61,3.318s2.918,1.238,4.959,1.238
			c2.824,0,4.977-0.731,6.458-2.193c1.482-1.463,2.223-3.42,2.223-5.869V9.791c0-1.26-0.087-2.215-0.262-2.867
			c-0.175-0.65-0.427-1.157-0.756-1.521c-0.329-0.363-0.746-0.633-1.25-0.809c-0.504-0.175-1.344-0.262-2.52-0.262V2.756h11.737
			v1.575h-0.84c-1.316,0-2.296,0.354-2.939,1.061c-0.644,0.706-0.966,1.731-0.966,3.075v15.265c0,3.331-0.952,5.886-2.855,7.663
			c-2.142,2.002-4.99,3.003-8.545,3.003c-3.08,0-5.501-0.438-7.265-1.313s-3.044-2.131-3.842-3.77
			c-0.602-1.245-0.903-2.813-0.903-4.703V5.864c0-0.476-0.164-0.851-0.491-1.124c-0.328-0.271-0.819-0.408-1.474-0.408h-2.948V2.756
			z"/>
		<path fill="#993333" d="M98.555,2.756h25.216l0.609,11.737h-1.449c-0.953-6.9-3.451-10.352-7.491-10.352
			c-0.813,0-1.371,0.141-1.672,0.42c-0.302,0.28-0.453,0.742-0.453,1.386v24.817c0,0.504,0.147,0.875,0.441,1.113
			s0.777,0.356,1.449,0.356h3.128v1.575h-14.424v-1.575h3.569c0.476,0,0.84-0.118,1.092-0.356s0.378-0.553,0.378-0.945V5.759
			c0-0.532-0.161-0.936-0.483-1.207c-0.322-0.273-0.84-0.41-1.554-0.41c-2.03,0-3.724,0.959-5.081,2.877
			c-1.12,1.582-1.925,4.072-2.415,7.475h-1.533L98.555,2.756z"/>
		<path fill="#993333" d="M127.361,2.756h13.27v1.575h-2.436c-0.854,0-1.41,0.15-1.669,0.451c-0.26,0.301-0.389,1.032-0.389,2.193
			v9.574h14.193V6.976c0-1.203-0.123-1.945-0.367-2.225c-0.245-0.28-0.822-0.42-1.732-0.42h-2.268V2.756h13.186v1.575h-2.415
			c-0.602,0-1.025,0.076-1.27,0.23c-0.245,0.154-0.444,0.42-0.599,0.798c-0.084,0.238-0.126,0.86-0.126,1.868v22.34
			c0,1.078,0.091,1.729,0.273,1.953c0.363,0.477,1.028,0.714,1.994,0.714h2.142v1.575h-13.186v-1.575h2.268
			c0.896,0,1.505-0.245,1.827-0.735c0.182-0.266,0.272-0.965,0.272-2.1V18.609h-14.193v10.959c0,1.092,0.084,1.75,0.252,1.975
			c0.35,0.461,0.952,0.692,1.806,0.692h2.436v1.575h-13.27v-1.575h2.541c0.447,0,0.805-0.091,1.07-0.272s0.462-0.441,0.588-0.777
			c0.07-0.224,0.105-0.818,0.105-1.785V6.976c0-1.161-0.13-1.893-0.389-2.193c-0.26-0.301-0.822-0.451-1.69-0.451h-2.226V2.756z"/>
		<path fill="#993333" d="M163.979,2.756h24.607l0.588,10.478h-1.407c-0.559-3.304-1.442-5.613-2.652-6.93
			c-1.209-1.314-2.784-1.973-4.728-1.973h-6.08c-0.489,0-0.86,0.133-1.111,0.398c-0.252,0.266-0.378,0.672-0.378,1.218v11.065h2.659
			c1.424,0,2.579-0.512,3.466-1.533c0.886-1.021,1.364-2.59,1.434-4.703h1.449V25.16h-1.449c-0.069-2.38-0.555-4.084-1.455-5.113
			s-2.125-1.543-3.675-1.543h-2.429v12.346c0,0.448,0.15,0.791,0.451,1.029s0.8,0.356,1.499,0.356h4.802
			c5.214,0,8.22-3.331,9.017-9.994h1.512l-0.524,11.569h-25.595v-1.575h2.12c0.826,0,1.407-0.144,1.743-0.431
			s0.504-0.703,0.504-1.249V5.948c0-0.546-0.147-0.952-0.44-1.218c-0.295-0.266-0.756-0.398-1.387-0.398h-2.54V2.756z"/>
		<path fill="#993333" d="M193.31,2.756h16.041c3.107,0,5.519,0.707,7.233,2.12c1.714,1.414,2.571,3.27,2.571,5.564
			c0,1.372-0.339,2.594-1.018,3.664c-0.68,1.07-1.659,1.924-2.939,2.561c-1.281,0.638-3.293,1.096-6.037,1.376
			c1.997,0.546,3.372,1.081,4.126,1.606s1.357,1.203,1.812,2.037c0.454,0.832,0.979,2.529,1.572,5.091
			c0.425,1.834,0.875,3.087,1.352,3.759c0.363,0.518,0.756,0.776,1.176,0.776c0.434,0,0.836-0.318,1.207-0.956
			c0.37-0.637,0.598-1.76,0.682-3.369h1.428c-0.266,4.76-2.022,7.139-5.27,7.139c-1.021,0-1.907-0.26-2.656-0.777
			s-1.313-1.28-1.689-2.288c-0.295-0.756-0.623-2.736-0.987-5.942c-0.21-1.861-0.543-3.184-0.997-3.968
			c-0.455-0.784-1.166-1.413-2.131-1.89c-0.967-0.476-2.121-0.714-3.465-0.714h-2.541v12.198c0,0.519,0.134,0.883,0.399,1.092
			c0.336,0.267,0.86,0.399,1.575,0.399h2.98v1.575H193.31v-1.575h3.045c0.672,0,1.165-0.133,1.479-0.399
			c0.315-0.266,0.473-0.629,0.473-1.092V5.927c0-0.532-0.161-0.932-0.483-1.197c-0.321-0.266-0.812-0.398-1.469-0.398h-3.045V2.756z
			 M202.778,17.034h3.675c2.464,0,4.392-0.464,5.784-1.394s2.09-2.582,2.09-4.957c0-1.636-0.263-2.928-0.788-3.879
			c-0.524-0.949-1.214-1.6-2.067-1.949c-0.854-0.35-2.534-0.523-5.039-0.523c-1.652,0-2.674,0.115-3.066,0.346
			c-0.392,0.23-0.588,0.625-0.588,1.184V17.034z"/>
		<path fill="#993333" d="M225.035,2.756h7.412l18.729,24.397V9.496c0-1.777-0.406-3.093-1.219-3.947
			c-0.741-0.783-1.848-1.189-3.316-1.217V2.756h10.875v1.575c-1.11,0-1.94,0.154-2.489,0.461c-0.548,0.309-1.026,0.869-1.434,1.68
			c-0.408,0.813-0.612,1.701-0.612,2.667V33.81h-1.973l-19.38-25.4v18.74c0,1.695,0.427,2.96,1.28,3.793
			c0.854,0.834,2.177,1.264,3.969,1.292v1.575h-11.842v-1.575c1.483-0.056,2.659-0.542,3.527-1.457s1.302-2.037,1.302-3.365V6.383
			l-0.369-0.405c-0.699-0.762-1.195-1.213-1.488-1.354c-0.405-0.195-0.928-0.293-1.569-0.293h-1.402V2.756z"/>
	</g>
	<g>
		<path fill="#993333" d="M22.809,48.581l1.406-2.016h1.141l0.094,8.422h-1.031c-0.646-2.583-1.602-4.469-2.867-5.656
			s-2.722-1.781-4.367-1.781c-1.375,0-2.5,0.412-3.375,1.235c-0.875,0.824-1.313,1.83-1.313,3.019c0,0.74,0.167,1.39,0.5,1.947
			s0.83,1.011,1.491,1.36c0.661,0.35,1.909,0.721,3.743,1.115c2.573,0.559,4.378,1.125,5.415,1.698
			c1.036,0.573,1.81,1.294,2.32,2.164c0.51,0.87,0.766,1.889,0.766,3.055c0,2.084-0.701,3.811-2.102,5.18
			c-1.401,1.37-3.211,2.055-5.43,2.055c-2.386,0-4.458-0.771-6.219-2.313l-1.766,2.156H10.09v-8.953h1.125
			c0.438,2.469,1.417,4.417,2.938,5.844c1.521,1.428,3.234,2.141,5.141,2.141c1.542,0,2.799-0.455,3.773-1.367
			c0.974-0.911,1.461-2.018,1.461-3.32c0-0.739-0.183-1.388-0.547-1.945c-0.365-0.557-0.943-1.025-1.734-1.406
			c-0.792-0.38-2.349-0.841-4.672-1.383c-2.552-0.604-4.292-1.281-5.219-2.031c-1.302-1.063-1.953-2.567-1.953-4.516
			c0-2.031,0.648-3.695,1.945-4.992s2.956-1.945,4.977-1.945c0.969,0,1.891,0.172,2.766,0.516S21.872,47.779,22.809,48.581z"/>
		<path fill="#993333" d="M33.075,49.331h1.047V55.3h4.734v1.438h-4.734v9.391c0,0.813,0.192,1.436,0.578,1.867
			c0.385,0.433,0.875,0.648,1.469,0.648c0.708,0,1.313-0.328,1.813-0.984s0.792-1.739,0.875-3.25h1.047
			c-0.063,1.948-0.505,3.394-1.328,4.336c-0.823,0.943-1.891,1.414-3.203,1.414c-1.208,0-2.154-0.33-2.836-0.992
			c-0.683-0.661-1.023-1.528-1.023-2.602v-9.828h-2.547v-1.094c1.161-0.198,2.044-0.683,2.65-1.453
			C32.515,53.034,33.001,51.414,33.075,49.331z"/>
		<path fill="#993333" d="M57.137,68.331l0.563,0.875c-0.761,0.781-1.604,1.172-2.531,1.172c-0.708,0-1.305-0.193-1.789-0.578
			s-0.909-1.063-1.273-2.031c-0.99,1.042-1.859,1.737-2.609,2.086s-1.651,0.523-2.703,0.523c-1.5,0-2.641-0.323-3.422-0.969
			S42.2,67.936,42.2,66.925c0-1.521,0.893-2.783,2.68-3.789c1.786-1.005,4.164-1.674,7.133-2.008v-2.219
			c0-0.792-0.318-1.469-0.953-2.031c-0.636-0.563-1.443-0.844-2.422-0.844c-0.906,0-1.688,0.188-2.344,0.563
			c-0.469,0.281-0.703,0.558-0.703,0.828c0,0.156,0.125,0.401,0.375,0.734c0.302,0.417,0.453,0.786,0.453,1.109
			c0,0.469-0.151,0.852-0.453,1.148c-0.302,0.297-0.698,0.445-1.188,0.445c-0.521,0-0.956-0.177-1.305-0.531
			c-0.349-0.354-0.523-0.807-0.523-1.359c0-1.031,0.581-1.974,1.742-2.828c1.161-0.854,2.685-1.281,4.57-1.281
			c1.739,0,3.067,0.375,3.984,1.125c0.917,0.761,1.375,1.683,1.375,2.766v8c0,0.709,0.114,1.229,0.344,1.563
			c0.229,0.344,0.526,0.516,0.891,0.516C56.262,68.831,56.689,68.665,57.137,68.331z M52.012,62.159
			c-2.646,0.365-4.521,0.959-5.625,1.781c-0.823,0.625-1.234,1.511-1.234,2.656c0,0.803,0.213,1.43,0.641,1.883
			c0.427,0.453,0.984,0.68,1.672,0.68c1.229,0,2.294-0.466,3.195-1.398c0.901-0.932,1.352-2.102,1.352-3.508V62.159z"/>
		<path fill="#993333" d="M63.325,49.331h1.047V55.3h4.734v1.438h-4.734v9.391c0,0.813,0.192,1.436,0.578,1.867
			c0.385,0.433,0.875,0.648,1.469,0.648c0.708,0,1.313-0.328,1.813-0.984s0.792-1.739,0.875-3.25h1.047
			c-0.063,1.948-0.505,3.394-1.328,4.336c-0.823,0.943-1.891,1.414-3.203,1.414c-1.208,0-2.154-0.33-2.836-0.992
			c-0.683-0.661-1.023-1.528-1.023-2.602v-9.828h-2.547v-1.094c1.161-0.198,2.044-0.683,2.65-1.453
			C62.765,53.034,63.251,51.414,63.325,49.331z"/>
		<path fill="#993333" d="M85.653,62.722H75.168c0.052,2.229,0.469,3.803,1.25,4.719c0.896,1.031,2.036,1.547,3.422,1.547
			c2.042,0,3.682-1.161,4.922-3.484l1.016,0.438c-1.521,2.959-3.719,4.438-6.594,4.438c-1.958,0-3.607-0.708-4.945-2.125
			c-1.339-1.416-2.008-3.229-2.008-5.438c0-2.375,0.659-4.294,1.977-5.758c1.317-1.464,2.94-2.195,4.867-2.195
			c1.417,0,2.641,0.364,3.672,1.094s1.807,1.776,2.328,3.141C85.439,60.056,85.632,61.264,85.653,62.722z M75.168,61.612h6.344
			c0.375,0,0.667-0.127,0.875-0.383c0.208-0.255,0.313-0.689,0.313-1.305c0-1.146-0.357-2.12-1.07-2.922
			c-0.714-0.802-1.555-1.203-2.523-1.203c-1.083,0-2.003,0.484-2.758,1.453C75.593,58.222,75.2,59.675,75.168,61.612z"/>
		<path fill="#993333" d="M96.622,46.831h10.672v1.172h-2.141c-0.573,0-0.974,0.094-1.203,0.281
			c-0.229,0.188-0.344,0.474-0.344,0.859V62.19c0,1.365,0.12,2.396,0.359,3.094c0.354,1.031,1.001,1.854,1.943,2.469
			c0.941,0.615,2.172,0.922,3.69,0.922c2.102,0,3.704-0.544,4.807-1.633c1.103-1.088,1.654-2.544,1.654-4.367V52.065
			c0-0.938-0.065-1.648-0.195-2.133c-0.13-0.484-0.318-0.862-0.563-1.133c-0.245-0.271-0.555-0.472-0.93-0.602s-1-0.195-1.875-0.195
			v-1.172h8.734v1.172h-0.625c-0.979,0-1.708,0.263-2.188,0.789c-0.479,0.526-0.719,1.289-0.719,2.289V62.44
			c0,2.479-0.708,4.381-2.125,5.703c-1.594,1.49-3.714,2.234-6.359,2.234c-2.292,0-4.094-0.326-5.406-0.977
			s-2.266-1.586-2.859-2.805c-0.448-0.927-0.672-2.094-0.672-3.5V49.144c0-0.354-0.122-0.633-0.366-0.836s-0.609-0.305-1.097-0.305
			h-2.194V46.831z"/>
		<path fill="#993333" d="M122.887,55.3l4.859-0.297c0.198,0.917,0.344,1.989,0.438,3.219c0.656-1.063,1.429-1.859,2.32-2.391
			s1.898-0.797,3.023-0.797c0.969,0,1.781,0.19,2.438,0.57s1.182,0.981,1.578,1.805s0.594,1.745,0.594,2.766V67.3
			c0,0.531,0.119,0.909,0.359,1.133c0.24,0.225,0.641,0.336,1.203,0.336h1.031v1.172h-7.719v-1.172h0.734
			c0.688,0,1.166-0.109,1.438-0.328s0.406-0.547,0.406-0.984V61.19c0-1.364-0.209-2.375-0.625-3.031
			c-0.584-0.938-1.469-1.406-2.656-1.406c-1.178,0-2.158,0.474-2.945,1.422c-0.786,0.948-1.179,2.183-1.179,3.703V67.3
			c0,0.531,0.122,0.909,0.367,1.133c0.245,0.225,0.648,0.336,1.21,0.336h1.016v1.172h-7.75v-1.172h1.016
			c0.51,0,0.898-0.104,1.164-0.313c0.266-0.208,0.398-0.469,0.398-0.781v-9.453c0-0.625-0.169-1.099-0.508-1.422
			c-0.339-0.323-0.826-0.484-1.461-0.484h-0.75V55.3z"/>
		<path fill="#993333" d="M142.152,55.3l5.828-0.172v12.594c0,0.344,0.083,0.589,0.25,0.734c0.239,0.209,0.541,0.313,0.906,0.313
			h1.656v1.172h-8.328v-1.172h1.547c0.458,0,0.794-0.111,1.008-0.336c0.213-0.224,0.32-0.549,0.32-0.977v-9.219
			c0-0.583-0.167-1.023-0.5-1.32c-0.334-0.297-0.828-0.445-1.484-0.445h-1.203V55.3z M146.215,46.565
			c0.469,0,0.88,0.177,1.234,0.531c0.354,0.354,0.531,0.771,0.531,1.25c0,0.469-0.172,0.875-0.516,1.219s-0.756,0.516-1.234,0.516
			c-0.479,0-0.894-0.175-1.242-0.523c-0.35-0.349-0.523-0.758-0.523-1.227s0.177-0.88,0.531-1.234
			C145.35,46.742,145.756,46.565,146.215,46.565z"/>
		<path fill="#993333" d="M151.871,55.3h7.203v1.063c-0.959,0.021-1.57,0.106-1.836,0.258s-0.398,0.367-0.398,0.648
			c0,0.229,0.053,0.458,0.157,0.688l3.882,8.641l3.532-8.378c0.052-0.146,0.078-0.291,0.078-0.437c0-0.76-0.748-1.232-2.243-1.42
			V55.3h6.063v1.063c-0.615,0.063-1.104,0.229-1.469,0.5c-0.365,0.271-0.646,0.636-0.844,1.094l-5.364,12.422h-0.845l-5.76-12.766
			c-0.209-0.458-0.461-0.778-0.758-0.961s-0.764-0.278-1.398-0.289V55.3z"/>
		<path fill="#993333" d="M183.434,62.722h-10.484c0.052,2.229,0.469,3.803,1.25,4.719c0.896,1.031,2.036,1.547,3.422,1.547
			c2.041,0,3.682-1.161,4.922-3.484l1.016,0.438c-1.521,2.959-3.719,4.438-6.594,4.438c-1.959,0-3.607-0.708-4.945-2.125
			c-1.339-1.416-2.008-3.229-2.008-5.438c0-2.375,0.658-4.294,1.977-5.758c1.317-1.464,2.939-2.195,4.867-2.195
			c1.416,0,2.641,0.364,3.672,1.094s1.807,1.776,2.328,3.141C183.22,60.056,183.412,61.264,183.434,62.722z M172.949,61.612h6.344
			c0.375,0,0.666-0.127,0.875-0.383c0.208-0.255,0.313-0.689,0.313-1.305c0-1.146-0.357-2.12-1.07-2.922
			c-0.714-0.802-1.555-1.203-2.523-1.203c-1.084,0-2.003,0.484-2.758,1.453C173.373,58.222,172.98,59.675,172.949,61.612z"/>
		<path fill="#993333" d="M185.465,55.3l5.266-0.266v5.922c0.563-1.948,1.239-3.422,2.031-4.422c0.791-1,1.771-1.5,2.938-1.5
			c0.791,0,1.424,0.242,1.898,0.727c0.474,0.484,0.711,1.133,0.711,1.945c0,0.656-0.159,1.167-0.477,1.531
			c-0.318,0.365-0.717,0.547-1.195,0.547c-0.469,0-0.847-0.156-1.133-0.469c-0.287-0.313-0.43-0.734-0.43-1.266
			c0-0.344,0.083-0.667,0.25-0.969c0.156-0.271,0.234-0.433,0.234-0.484c0-0.156-0.1-0.234-0.297-0.234
			c-0.428,0-0.912,0.25-1.453,0.75c-0.75,0.698-1.328,1.656-1.734,2.875c-0.625,1.896-0.938,3.412-0.938,4.547v3.141
			c0,0.354,0.125,0.625,0.375,0.813s0.677,0.281,1.281,0.281h1.859v1.172h-9.094v-1.172h1.453c0.489,0,0.859-0.096,1.109-0.289
			c0.25-0.192,0.375-0.424,0.375-0.695v-9.328c0-0.708-0.151-1.227-0.453-1.555c-0.303-0.328-0.734-0.492-1.297-0.492h-1.281V55.3z"
			/>
		<path fill="#993333" d="M201.668,64.425c0.646,1.803,1.388,3.05,2.227,3.742c0.838,0.693,1.872,1.039,3.102,1.039
			c1.135,0,2.008-0.247,2.617-0.742c0.609-0.494,0.914-1.122,0.914-1.883c0-0.438-0.112-0.82-0.337-1.148
			c-0.224-0.328-0.534-0.572-0.931-0.734c-0.397-0.161-1.426-0.398-3.085-0.711c-1.586-0.313-2.692-0.641-3.317-0.984
			c-0.626-0.344-1.113-0.817-1.463-1.422c-0.349-0.604-0.523-1.26-0.523-1.969c0-1.073,0.359-2.047,1.08-2.922
			c0.928-1.114,2.227-1.672,3.896-1.672c1.272,0,2.451,0.401,3.536,1.203l1.032-1.094h0.643l0.406,5.219h-1.047
			c-0.459-1.479-1.08-2.544-1.863-3.195c-0.782-0.651-1.748-0.977-2.896-0.977c-0.991,0-1.769,0.242-2.332,0.727
			c-0.564,0.484-0.846,1.075-0.846,1.773c0,0.615,0.261,1.125,0.783,1.531c0.511,0.417,1.513,0.746,3.005,0.986
			c1.732,0.293,2.859,0.538,3.381,0.737c0.855,0.313,1.518,0.794,1.986,1.444c0.47,0.65,0.704,1.444,0.704,2.381
			c0,1.291-0.509,2.385-1.525,3.28c-1.018,0.896-2.308,1.343-3.872,1.343c-1.45,0-2.796-0.479-4.037-1.438l-1.142,1.313h-0.83
			l-0.313-5.828H201.668z"/>
		<path fill="#993333" d="M214.434,55.3l5.828-0.172v12.594c0,0.344,0.083,0.589,0.25,0.734c0.239,0.209,0.541,0.313,0.906,0.313
			h1.656v1.172h-8.328v-1.172h1.547c0.458,0,0.794-0.111,1.008-0.336c0.213-0.224,0.32-0.549,0.32-0.977v-9.219
			c0-0.583-0.167-1.023-0.5-1.32c-0.334-0.297-0.828-0.445-1.484-0.445h-1.203V55.3z M218.496,46.565
			c0.469,0,0.88,0.177,1.234,0.531c0.354,0.354,0.531,0.771,0.531,1.25c0,0.469-0.172,0.875-0.516,1.219s-0.756,0.516-1.234,0.516
			c-0.479,0-0.894-0.175-1.242-0.523c-0.35-0.349-0.523-0.758-0.523-1.227s0.177-0.88,0.531-1.234
			C217.631,46.742,218.037,46.565,218.496,46.565z"/>
		<path fill="#993333" d="M228.652,49.331h1.047V55.3h4.734v1.438h-4.734v9.391c0,0.813,0.192,1.436,0.578,1.867
			c0.385,0.433,0.875,0.648,1.469,0.648c0.708,0,1.313-0.328,1.813-0.984s0.791-1.739,0.875-3.25h1.047
			c-0.063,1.948-0.506,3.394-1.328,4.336c-0.823,0.943-1.891,1.414-3.203,1.414c-1.209,0-2.154-0.33-2.836-0.992
			c-0.683-0.661-1.023-1.528-1.023-2.602v-9.828h-2.547v-1.094c1.16-0.198,2.044-0.683,2.65-1.453
			C228.093,53.034,228.579,51.414,228.652,49.331z"/>
		<path fill="#993333" d="M236.918,55.3h7.016v1.063h-0.656c-0.615,0-1.034,0.081-1.258,0.242c-0.225,0.161-0.336,0.394-0.336,0.695
			c0,0.136,0.031,0.271,0.094,0.406l4.079,8.797l3.03-7.297c0.219-0.521,0.328-1.031,0.328-1.531c0-0.386-0.151-0.685-0.453-0.898
			c-0.303-0.214-0.906-0.352-1.813-0.414V55.3h6.094v1.063c-1.178,0.114-1.969,0.641-2.375,1.578l-5.417,12.602
			c-0.92,2.141-1.844,3.611-2.771,4.414c-0.938,0.813-1.943,1.219-3.016,1.219c-0.781,0-1.409-0.214-1.883-0.641
			c-0.475-0.428-0.711-0.953-0.711-1.578c0-0.469,0.146-0.854,0.438-1.156c0.291-0.303,0.656-0.453,1.094-0.453
			c0.396,0,0.729,0.13,1,0.391c0.271,0.26,0.406,0.572,0.406,0.938c0,0.114-0.021,0.271-0.063,0.469
			c-0.042,0.156-0.063,0.271-0.063,0.344c0,0.25,0.161,0.375,0.484,0.375c0.344,0,0.731-0.125,1.164-0.375
			c0.432-0.25,0.836-0.651,1.211-1.203c0.375-0.553,1.032-1.775,1.973-3.669l-5.557-11.909c-0.197-0.417-0.444-0.727-0.74-0.93
			s-0.729-0.341-1.301-0.414V55.3z"/>
	</g>
</g>
</svg>
