<?xml version="1.0" encoding="utf-8"?>
<!-- Generator: Adobe Illustrator 16.2.0, SVG Export Plug-In . SVG Version: 6.00 Build 0)  -->
<!DOCTYPE svg PUBLIC "-//W3C//DTD SVG 1.1//EN" "http://www.w3.org/Graphics/SVG/1.1/DTD/svg11.dtd">
<svg version="1.1" id="Layer_1" xmlns="http://www.w3.org/2000/svg" xmlns:xlink="http://www.w3.org/1999/xlink" x="0px" y="0px"
	 width="260px" height="96px" viewBox="0 0 260 96" enable-background="new 0 0 260 96" xml:space="preserve">
<g>
	<g>
		<path fill="#993333" d="M3.412,35.542c2.399,1.38,6,2.58,9.779,2.58c4.74,0,7.38-2.22,7.38-5.52c0-3.06-2.04-4.859-7.199-6.72
			c-6.66-2.4-10.92-5.939-10.92-11.76c0-6.6,5.52-11.639,14.279-11.639c4.38,0,7.62,0.96,9.72,2.04l-1.8,5.94
			c-1.44-0.78-4.26-1.92-8.04-1.92c-4.68,0-6.72,2.52-6.72,4.86c0,3.12,2.34,4.56,7.74,6.66c7.02,2.64,10.439,6.18,10.439,11.999
			c0,6.479-4.92,12.119-15.359,12.119c-4.26,0-8.7-1.199-10.92-2.52L3.412,35.542z"/>
		<path fill="#993333" d="M65.57,28.702c0,10.74-7.56,15.54-14.999,15.54c-8.28,0-14.64-5.7-14.64-15.06
			c0-9.6,6.3-15.479,15.119-15.479C59.751,13.703,65.57,19.823,65.57,28.702z M43.552,29.002c0,5.64,2.76,9.899,7.26,9.899
			c4.199,0,7.14-4.14,7.14-10.02c0-4.56-2.04-9.78-7.08-9.78C45.651,19.102,43.552,24.142,43.552,29.002z"/>
		<path fill="#993333" d="M100.79,34.822c0,3.479,0.12,6.36,0.24,8.76h-6.479l-0.36-4.439h-0.12c-1.26,2.1-4.14,5.1-9.359,5.1
			c-5.34,0-10.199-3.18-10.199-12.72V14.363h7.38v15.899c0,4.859,1.56,7.979,5.459,7.979c2.94,0,4.86-2.1,5.64-3.96
			c0.24-0.66,0.421-1.439,0.421-2.279v-17.64h7.379V34.822z"/>
		<path fill="#993333" d="M120.23,6.023v8.34h7.02v5.52h-7.02v12.899c0,3.54,0.96,5.4,3.779,5.4c1.26,0,2.22-0.181,2.88-0.36
			l0.12,5.64c-1.08,0.42-3,0.72-5.34,0.72c-2.7,0-4.979-0.899-6.359-2.399c-1.56-1.68-2.28-4.32-2.28-8.16V19.882h-4.199v-5.52
			h4.199v-6.6L120.23,6.023z"/>
		<path fill="#993333" d="M135.83,0.983h7.439v17.399h0.12c0.9-1.38,2.1-2.52,3.66-3.359c1.439-0.84,3.18-1.32,5.039-1.32
			c4.98,0,10.2,3.3,10.2,12.659v17.22h-7.38V27.203c0-4.261-1.56-7.44-5.64-7.44c-2.88,0-4.92,1.92-5.7,4.141
			c-0.239,0.6-0.3,1.38-0.3,2.22v17.459h-7.439V0.983z"/>
		<path fill="#993333" d="M178.369,31.042c0.18,5.279,4.319,7.56,9,7.56c3.42,0,5.879-0.48,8.1-1.32l1.08,5.1
			c-2.521,1.021-6,1.8-10.2,1.8c-9.479,0-15.06-5.819-15.06-14.759c0-8.1,4.92-15.72,14.279-15.72c9.48,0,12.6,7.8,12.6,14.22
			c0,1.38-0.12,2.46-0.239,3.12H178.369z M191.209,25.882c0.06-2.7-1.141-7.14-6.061-7.14c-4.56,0-6.479,4.14-6.779,7.14H191.209z"
			/>
		<path fill="#993333" d="M207.109,23.783c0-3.96-0.061-6.78-0.24-9.42h6.42l0.24,5.58h0.239c1.44-4.141,4.86-6.24,7.98-6.24
			c0.72,0,1.14,0.061,1.739,0.18v6.96c-0.6-0.12-1.26-0.24-2.159-0.24c-3.54,0-5.94,2.28-6.601,5.58
			c-0.119,0.66-0.239,1.44-0.239,2.28v15.119h-7.38V23.783z"/>
		<path fill="#993333" d="M231.469,23.062c0-3.359-0.061-6.18-0.24-8.699h6.479l0.36,4.38h0.18c1.26-2.28,4.44-5.04,9.3-5.04
			c5.1,0,10.38,3.3,10.38,12.54v17.339h-7.38V27.083c0-4.2-1.56-7.38-5.58-7.38c-2.939,0-4.979,2.1-5.76,4.319
			c-0.239,0.66-0.3,1.561-0.3,2.4v17.159h-7.439V23.062z"/>
	</g>
	<g>
		<path fill="#666766" d="M6.474,82.671c1.32,0.76,3.301,1.419,5.38,1.419c2.607,0,4.06-1.221,4.06-3.036
			c0-1.683-1.122-2.673-3.96-3.696c-3.664-1.32-6.007-3.268-6.007-6.469c0-3.631,3.036-6.403,7.855-6.403
			c2.41,0,4.192,0.528,5.347,1.122l-0.99,3.268c-0.792-0.429-2.344-1.056-4.423-1.056c-2.574,0-3.696,1.386-3.696,2.673
			c0,1.717,1.287,2.509,4.257,3.664c3.862,1.452,5.743,3.399,5.743,6.601c0,3.564-2.706,6.667-8.449,6.667
			c-2.343,0-4.786-0.66-6.007-1.386L6.474,82.671z"/>
		<path fill="#666766" d="M29.707,66.433v4.588h3.861v3.036h-3.861v7.097c0,1.947,0.528,2.97,2.079,2.97
			c0.693,0,1.221-0.099,1.584-0.198l0.066,3.103c-0.594,0.231-1.65,0.396-2.938,0.396c-1.485,0-2.739-0.495-3.499-1.32
			c-0.858-0.924-1.254-2.376-1.254-4.488v-7.559h-2.311v-3.036h2.311V67.39L29.707,66.433z"/>
		<path fill="#666766" d="M47.329,87.094l-0.264-1.782h-0.099c-0.99,1.254-2.673,2.146-4.752,2.146c-3.234,0-5.05-2.344-5.05-4.786
			c0-4.06,3.598-6.105,9.539-6.072v-0.265c0-1.056-0.429-2.806-3.268-2.806c-1.584,0-3.234,0.495-4.324,1.188l-0.792-2.641
			c1.188-0.726,3.268-1.419,5.809-1.419c5.149,0,6.634,3.268,6.634,6.767v5.809c0,1.452,0.066,2.871,0.231,3.861H47.329z
			 M46.801,79.238c-2.871-0.065-5.611,0.562-5.611,3.004c0,1.584,1.023,2.311,2.311,2.311c1.617,0,2.805-1.057,3.168-2.212
			c0.099-0.297,0.132-0.627,0.132-0.891V79.238z"/>
		<path fill="#666766" d="M61.155,66.433v4.588h3.861v3.036h-3.861v7.097c0,1.947,0.528,2.97,2.079,2.97
			c0.693,0,1.221-0.099,1.584-0.198l0.066,3.103c-0.594,0.231-1.65,0.396-2.938,0.396c-1.485,0-2.739-0.495-3.499-1.32
			c-0.858-0.924-1.254-2.376-1.254-4.488v-7.559h-2.311v-3.036h2.311V67.39L61.155,66.433z"/>
		<path fill="#666766" d="M72.408,80.195c0.099,2.905,2.376,4.159,4.951,4.159c1.881,0,3.234-0.265,4.456-0.727l0.594,2.806
			c-1.386,0.562-3.301,0.99-5.611,0.99c-5.215,0-8.284-3.201-8.284-8.119c0-4.456,2.706-8.647,7.855-8.647
			c5.215,0,6.931,4.291,6.931,7.822c0,0.759-0.066,1.354-0.132,1.716H72.408z M79.471,77.357c0.033-1.485-0.627-3.928-3.333-3.928
			c-2.508,0-3.564,2.277-3.729,3.928H79.471z"/>
		<path fill="#666766" d="M100.887,64.849v12.971c0,4.356,1.815,6.37,4.555,6.37c2.937,0,4.687-2.014,4.687-6.37V64.849h4.06v12.707
			c0,6.864-3.532,9.901-8.878,9.901c-5.148,0-8.482-2.872-8.482-9.868v-12.74H100.887z"/>
		<path fill="#666766" d="M120.322,75.806c0-1.848-0.033-3.399-0.132-4.785h3.564l0.198,2.409h0.099
			c0.693-1.254,2.442-2.772,5.116-2.772c2.806,0,5.71,1.815,5.71,6.898v9.538h-4.061v-9.076c0-2.311-0.857-4.06-3.069-4.06
			c-1.617,0-2.739,1.155-3.168,2.376c-0.132,0.363-0.165,0.858-0.165,1.32v9.439h-4.093V75.806z"/>
		<path fill="#666766" d="M145.171,66.532c0,1.221-0.891,2.178-2.311,2.178c-1.352,0-2.244-0.957-2.244-2.178
			c0-1.255,0.924-2.212,2.277-2.212C144.28,64.32,145.138,65.277,145.171,66.532z M140.849,87.094V71.021h4.092v16.073H140.849z"/>
		<path fill="#666766" d="M153.521,71.021l2.607,8.152c0.463,1.419,0.793,2.706,1.09,4.026h0.098c0.299-1.32,0.66-2.574,1.09-4.026
			l2.541-8.152h4.291l-6.139,16.073h-3.994l-5.973-16.073H153.521z"/>
		<path fill="#666766" d="M171.804,80.195c0.098,2.905,2.375,4.159,4.949,4.159c1.883,0,3.236-0.265,4.457-0.727l0.594,2.806
			c-1.387,0.562-3.301,0.99-5.611,0.99c-5.215,0-8.283-3.201-8.283-8.119c0-4.456,2.705-8.647,7.855-8.647
			c5.213,0,6.93,4.291,6.93,7.822c0,0.759-0.066,1.354-0.131,1.716H171.804z M178.866,77.357c0.033-1.485-0.627-3.928-3.334-3.928
			c-2.508,0-3.564,2.277-3.729,3.928H178.866z"/>
		<path fill="#666766" d="M187.61,76.202c0-2.179-0.033-3.729-0.133-5.182h3.531l0.133,3.069h0.131
			c0.793-2.277,2.674-3.433,4.391-3.433c0.396,0,0.627,0.033,0.957,0.1v3.828c-0.33-0.066-0.693-0.132-1.189-0.132
			c-1.947,0-3.266,1.254-3.629,3.069c-0.066,0.363-0.133,0.792-0.133,1.254v8.317h-4.059V76.202z"/>
		<path fill="#666766" d="M200.81,83.364c0.924,0.561,2.672,1.155,4.125,1.155c1.781,0,2.574-0.727,2.574-1.782
			c0-1.089-0.66-1.65-2.641-2.344c-3.135-1.089-4.455-2.805-4.422-4.687c0-2.838,2.344-5.05,6.072-5.05
			c1.783,0,3.334,0.462,4.258,0.957l-0.793,2.872c-0.691-0.396-1.979-0.925-3.398-0.925c-1.453,0-2.244,0.693-2.244,1.684
			c0,1.023,0.758,1.519,2.805,2.244c2.904,1.057,4.258,2.541,4.291,4.918c0,2.904-2.277,5.017-6.535,5.017
			c-1.947,0-3.697-0.462-4.885-1.122L200.81,83.364z"/>
		<path fill="#666766" d="M220.741,66.532c0,1.221-0.893,2.178-2.311,2.178c-1.354,0-2.244-0.957-2.244-2.178
			c0-1.255,0.924-2.212,2.277-2.212C219.849,64.32,220.708,65.277,220.741,66.532z M216.417,87.094V71.021h4.092v16.073H216.417z"/>
		<path fill="#666766" d="M231.169,66.433v4.588h3.861v3.036h-3.861v7.097c0,1.947,0.529,2.97,2.08,2.97
			c0.693,0,1.221-0.099,1.584-0.198l0.066,3.103c-0.594,0.231-1.65,0.396-2.938,0.396c-1.486,0-2.74-0.495-3.498-1.32
			c-0.859-0.924-1.256-2.376-1.256-4.488v-7.559h-2.309v-3.036h2.309V67.39L231.169,66.433z"/>
		<path fill="#666766" d="M242.521,71.021l2.904,8.614c0.33,0.99,0.66,2.211,0.891,3.136h0.1c0.264-0.925,0.561-2.112,0.857-3.169
			l2.508-8.581h4.357l-4.027,10.957c-2.211,6.008-3.695,8.681-5.609,10.331c-1.584,1.419-3.234,1.947-4.258,2.079l-0.924-3.433
			c0.691-0.165,1.551-0.528,2.375-1.122c0.76-0.495,1.65-1.452,2.211-2.541c0.166-0.297,0.266-0.528,0.266-0.727
			c0-0.165-0.033-0.396-0.232-0.792l-5.875-14.753H242.521z"/>
	</g>
	<rect x="7.36" y="52.047" fill="none" stroke="#666766" stroke-width="2" stroke-miterlimit="10" width="245" height="2"/>
</g>
</svg>
