<?xml version="1.0" encoding="utf-8"?>
<!-- Generator: Adobe Illustrator 16.2.0, SVG Export Plug-In . SVG Version: 6.00 Build 0)  -->
<!DOCTYPE svg PUBLIC "-//W3C//DTD SVG 1.1//EN" "http://www.w3.org/Graphics/SVG/1.1/DTD/svg11.dtd">
<svg version="1.1" id="Layer_1" xmlns="http://www.w3.org/2000/svg" xmlns:xlink="http://www.w3.org/1999/xlink" x="0px" y="0px"
	 width="284px" height="44px" viewBox="0 0 284 44" enable-background="new 0 0 284 44" xml:space="preserve">
<g>
	<path fill="#666766" d="M11.009,42.926c-1.157,0-2.266-0.229-3.326-0.684c-1.061-0.456-2.001-1.113-2.821-1.971
		c-0.811-0.857-1.458-1.903-1.94-3.14c-0.483-1.235-0.724-2.629-0.724-4.18c0-1.55,0.237-2.957,0.71-4.221
		c0.473-1.263,1.129-2.351,1.967-3.263c0.829-0.902,1.807-1.601,2.937-2.094c1.129-0.492,2.336-0.738,3.62-0.738
		c0.956,0,1.821,0.119,2.595,0.355c0.774,0.237,1.512,0.57,2.213,0.998l0.56-0.93h1.094l0.123,6.918h-1.121
		c-0.146-0.674-0.364-1.406-0.656-2.194c-0.291-0.788-0.633-1.456-1.024-2.003c-0.437-0.619-0.956-1.105-1.557-1.456
		c-0.601-0.351-1.288-0.526-2.062-0.526c-0.883,0-1.705,0.196-2.465,0.588c-0.76,0.393-1.418,0.973-1.973,1.738
		c-0.528,0.738-0.942,1.678-1.243,2.818s-0.451,2.412-0.451,3.817c0,1.241,0.157,2.379,0.471,3.414S6.7,38.12,7.282,38.904
		c0.583,0.775,1.272,1.382,2.069,1.82c0.796,0.438,1.687,0.656,2.67,0.656c0.737,0,1.416-0.116,2.035-0.349s1.156-0.54,1.612-0.923
		c0.455-0.4,0.855-0.856,1.202-1.367c0.346-0.51,0.628-1.066,0.847-1.668l1.025,0.492c-0.783,1.924-1.821,3.297-3.115,4.122
		C14.333,42.514,12.794,42.926,11.009,42.926z"/>
	<path fill="#666766" d="M38.918,25.357c0.856,0.894,1.526,1.971,2.01,3.233c0.483,1.263,0.725,2.659,0.725,4.19
		c0,1.541-0.246,2.939-0.738,4.197s-1.176,2.329-2.051,3.213c-0.848,0.875-1.832,1.55-2.953,2.023s-2.315,0.711-3.582,0.711
		c-1.349,0-2.596-0.253-3.739-0.759c-1.144-0.506-2.126-1.21-2.946-2.112c-0.82-0.884-1.465-1.957-1.935-3.22
		c-0.47-1.263-0.704-2.613-0.704-4.054c0-1.576,0.246-2.982,0.738-4.218s1.171-2.304,2.037-3.206
		c0.856-0.893,1.853-1.576,2.987-2.051c1.135-0.474,2.322-0.711,3.562-0.711c1.285,0,2.497,0.242,3.637,0.725
		C37.104,23.804,38.088,24.482,38.918,25.357z M36.881,39.111c0.51-0.829,0.882-1.768,1.114-2.816
		c0.232-1.048,0.349-2.219,0.349-3.514c0-1.33-0.13-2.552-0.39-3.664c-0.26-1.111-0.641-2.06-1.142-2.844
		c-0.501-0.774-1.13-1.379-1.887-1.812c-0.757-0.433-1.623-0.649-2.598-0.649c-1.094,0-2.023,0.251-2.789,0.752
		c-0.766,0.502-1.39,1.172-1.873,2.01c-0.456,0.803-0.795,1.741-1.019,2.816c-0.224,1.076-0.335,2.206-0.335,3.391
		c0,1.313,0.118,2.498,0.355,3.555c0.237,1.058,0.61,1.996,1.121,2.816c0.492,0.803,1.112,1.429,1.859,1.88
		c0.747,0.451,1.641,0.677,2.68,0.677c0.975,0,1.854-0.228,2.639-0.684C35.75,40.57,36.389,39.932,36.881,39.111z"/>
	<path fill="#666766" d="M70.238,42.461h-8.572V41.49c0.31-0.009,0.708-0.041,1.196-0.096c0.487-0.055,0.822-0.132,1.005-0.232
		c0.282-0.173,0.49-0.371,0.622-0.595c0.132-0.224,0.198-0.503,0.198-0.841V25.617h-0.205l-6.617,16.529h-0.684l-6.303-16.871
		h-0.178v11.58c0,1.121,0.07,1.974,0.212,2.557c0.141,0.584,0.357,1.003,0.649,1.258c0.2,0.191,0.615,0.374,1.244,0.547
		c0.629,0.174,1.039,0.265,1.23,0.273v0.971h-7.834V41.49c0.41-0.036,0.841-0.104,1.292-0.205c0.451-0.1,0.8-0.25,1.046-0.451
		c0.319-0.255,0.538-0.646,0.656-1.176c0.118-0.528,0.178-1.412,0.178-2.652V27.08c0-0.574-0.068-1.043-0.205-1.408
		c-0.137-0.364-0.333-0.66-0.588-0.889c-0.283-0.246-0.629-0.428-1.039-0.547c-0.41-0.118-0.816-0.187-1.217-0.205v-0.971h6.615
		l5.557,14.563l4.744-12.182c0.173-0.447,0.321-0.914,0.444-1.402s0.189-0.814,0.198-0.979h6.327v0.971
		c-0.255,0.01-0.581,0.051-0.978,0.123c-0.396,0.073-0.686,0.142-0.868,0.205c-0.31,0.109-0.52,0.292-0.629,0.547
		c-0.109,0.256-0.164,0.533-0.164,0.834v13.986c0,0.319,0.055,0.588,0.164,0.807s0.319,0.41,0.629,0.574
		c0.164,0.092,0.456,0.176,0.875,0.253c0.419,0.077,0.752,0.121,0.998,0.13V42.461z"/>
	<path fill="#666766" d="M99,42.461h-8.572V41.49c0.31-0.009,0.708-0.041,1.196-0.096c0.487-0.055,0.822-0.132,1.005-0.232
		c0.282-0.173,0.49-0.371,0.622-0.595c0.132-0.224,0.198-0.503,0.198-0.841V25.617h-0.205l-6.617,16.529h-0.684l-6.303-16.871
		h-0.178v11.58c0,1.121,0.07,1.974,0.212,2.557c0.141,0.584,0.357,1.003,0.649,1.258c0.2,0.191,0.615,0.374,1.244,0.547
		c0.629,0.174,1.039,0.265,1.23,0.273v0.971h-7.834V41.49c0.41-0.036,0.841-0.104,1.292-0.205c0.451-0.1,0.8-0.25,1.046-0.451
		c0.319-0.255,0.538-0.646,0.656-1.176c0.118-0.528,0.178-1.412,0.178-2.652V27.08c0-0.574-0.068-1.043-0.205-1.408
		c-0.137-0.364-0.333-0.66-0.588-0.889c-0.283-0.246-0.629-0.428-1.039-0.547c-0.41-0.118-0.816-0.187-1.217-0.205v-0.971h6.615
		l5.557,14.563l4.744-12.182c0.173-0.447,0.321-0.914,0.444-1.402s0.189-0.814,0.198-0.979h6.327v0.971
		c-0.255,0.01-0.581,0.051-0.978,0.123c-0.396,0.073-0.686,0.142-0.868,0.205c-0.31,0.109-0.52,0.292-0.629,0.547
		c-0.109,0.256-0.164,0.533-0.164,0.834v13.986c0,0.319,0.055,0.588,0.164,0.807s0.319,0.41,0.629,0.574
		c0.164,0.092,0.456,0.176,0.875,0.253c0.419,0.077,0.752,0.121,0.998,0.13V42.461z"/>
	<path fill="#666766" d="M120.723,36.746l-0.369,5.715h-16.105V41.49c0.273-0.018,0.638-0.057,1.094-0.116
		c0.456-0.06,0.752-0.12,0.889-0.185c0.292-0.137,0.494-0.314,0.608-0.533c0.114-0.219,0.171-0.496,0.171-0.834V25.877
		c0-0.301-0.05-0.567-0.15-0.8c-0.101-0.232-0.31-0.421-0.629-0.567c-0.246-0.118-0.577-0.223-0.991-0.314
		c-0.415-0.091-0.745-0.146-0.991-0.164v-0.971h15.012v4.676h-1.025c-0.183-0.692-0.577-1.429-1.183-2.208
		c-0.606-0.779-1.183-1.205-1.729-1.278c-0.283-0.036-0.62-0.063-1.012-0.082c-0.392-0.018-0.839-0.027-1.34-0.027h-3.049v7.711
		h2.188c0.702,0,1.214-0.066,1.538-0.198c0.323-0.132,0.608-0.353,0.854-0.663c0.2-0.264,0.371-0.617,0.513-1.06
		c0.141-0.442,0.234-0.858,0.28-1.251h1.025v7.602h-1.025c-0.037-0.438-0.135-0.9-0.294-1.388c-0.16-0.487-0.326-0.841-0.499-1.06
		c-0.283-0.355-0.604-0.588-0.964-0.697c-0.36-0.109-0.836-0.164-1.429-0.164h-2.188v5.814c0,0.582,0.041,1.042,0.123,1.379
		c0.082,0.336,0.241,0.592,0.479,0.764c0.237,0.174,0.561,0.285,0.971,0.335s0.993,0.075,1.75,0.075c0.301,0,0.697,0,1.189,0
		s0.907-0.018,1.244-0.055c0.346-0.036,0.704-0.103,1.073-0.198s0.631-0.226,0.786-0.39c0.419-0.438,0.859-1.101,1.319-1.989
		c0.46-0.889,0.754-1.542,0.882-1.962H120.723z"/>
	<path fill="#666766" d="M145.411,24.031c-0.255,0.01-0.647,0.082-1.176,0.219s-0.907,0.278-1.135,0.424
		c-0.328,0.229-0.55,0.666-0.663,1.313c-0.114,0.647-0.171,1.468-0.171,2.461v14.205h-1.189l-11.758-15.873v10.008
		c0,1.121,0.07,1.982,0.212,2.584c0.141,0.602,0.357,1.03,0.649,1.285c0.209,0.201,0.643,0.388,1.299,0.561
		c0.656,0.174,1.089,0.265,1.299,0.273v0.971h-7.957V41.49c0.246-0.018,0.661-0.107,1.244-0.267
		c0.583-0.159,0.948-0.303,1.094-0.431c0.319-0.255,0.538-0.645,0.656-1.169c0.118-0.524,0.178-1.419,0.178-2.687v-9.557
		c0-0.419-0.073-0.838-0.219-1.258c-0.146-0.419-0.342-0.742-0.588-0.971c-0.328-0.301-0.772-0.559-1.333-0.772
		s-1.014-0.33-1.36-0.349v-0.971h5.542l10.905,14.79v-9.227c0-1.13-0.073-1.998-0.219-2.604c-0.146-0.605-0.355-1.009-0.629-1.209
		c-0.255-0.174-0.672-0.342-1.251-0.506c-0.579-0.164-1.019-0.255-1.319-0.273v-0.971h7.889V24.031z"/>
	<path fill="#666766" d="M158.321,42.926c-1.157,0-2.266-0.229-3.327-0.684c-1.061-0.456-2.001-1.113-2.82-1.971
		c-0.811-0.857-1.457-1.903-1.939-3.14c-0.483-1.235-0.725-2.629-0.725-4.18c0-1.55,0.236-2.957,0.711-4.221
		c0.473-1.263,1.129-2.351,1.967-3.263c0.828-0.902,1.807-1.601,2.937-2.094c1.129-0.492,2.335-0.738,3.619-0.738
		c0.956,0,1.821,0.119,2.596,0.355c0.773,0.237,1.511,0.57,2.212,0.998l0.561-0.93h1.094l0.123,6.918h-1.121
		c-0.146-0.674-0.364-1.406-0.655-2.194c-0.292-0.788-0.633-1.456-1.024-2.003c-0.438-0.619-0.956-1.105-1.557-1.456
		s-1.288-0.526-2.062-0.526c-0.884,0-1.705,0.196-2.466,0.588c-0.76,0.393-1.417,0.973-1.973,1.738
		c-0.528,0.738-0.942,1.678-1.243,2.818c-0.3,1.141-0.45,2.412-0.45,3.817c0,1.241,0.157,2.379,0.471,3.414
		c0.314,1.035,0.763,1.945,1.346,2.729c0.583,0.775,1.272,1.382,2.068,1.82c0.797,0.438,1.687,0.656,2.671,0.656
		c0.737,0,1.415-0.116,2.034-0.349s1.156-0.54,1.611-0.923c0.455-0.4,0.855-0.856,1.202-1.367c0.346-0.51,0.628-1.066,0.847-1.668
		l1.025,0.492c-0.783,1.924-1.821,3.297-3.114,4.122C161.645,42.514,160.105,42.926,158.321,42.926z"/>
	<path fill="#666766" d="M186.872,36.746l-0.369,5.715h-16.105V41.49c0.273-0.018,0.638-0.057,1.094-0.116s0.752-0.12,0.889-0.185
		c0.292-0.137,0.494-0.314,0.608-0.533s0.171-0.496,0.171-0.834V25.877c0-0.301-0.05-0.567-0.15-0.8s-0.31-0.421-0.629-0.567
		c-0.246-0.118-0.576-0.223-0.991-0.314c-0.415-0.091-0.745-0.146-0.991-0.164v-0.971h15.012v4.676h-1.025
		c-0.183-0.692-0.576-1.429-1.183-2.208s-1.183-1.205-1.729-1.278c-0.282-0.036-0.62-0.063-1.012-0.082
		c-0.392-0.018-0.839-0.027-1.34-0.027h-3.049v7.711h2.188c0.702,0,1.215-0.066,1.538-0.198s0.608-0.353,0.854-0.663
		c0.2-0.264,0.371-0.617,0.513-1.06s0.234-0.858,0.28-1.251h1.025v7.602h-1.025c-0.036-0.438-0.135-0.9-0.294-1.388
		s-0.326-0.841-0.499-1.06c-0.282-0.355-0.604-0.588-0.964-0.697s-0.836-0.164-1.429-0.164h-2.188v5.814
		c0,0.582,0.041,1.042,0.123,1.379c0.082,0.336,0.241,0.592,0.479,0.764c0.237,0.174,0.561,0.285,0.971,0.335
		s0.993,0.075,1.75,0.075c0.301,0,0.697,0,1.189,0s0.907-0.018,1.244-0.055c0.347-0.036,0.704-0.103,1.073-0.198
		s0.631-0.226,0.786-0.39c0.419-0.438,0.859-1.101,1.319-1.989s0.754-1.542,0.882-1.962H186.872z"/>
	<path fill="#666766" d="M215.007,42.461h-8.572V41.49c0.31-0.009,0.709-0.041,1.196-0.096s0.822-0.132,1.005-0.232
		c0.282-0.173,0.49-0.371,0.622-0.595s0.198-0.503,0.198-0.841V25.617h-0.205l-6.617,16.529h-0.684l-6.303-16.871h-0.178v11.58
		c0,1.121,0.07,1.974,0.212,2.557c0.142,0.584,0.357,1.003,0.649,1.258c0.2,0.191,0.615,0.374,1.244,0.547
		c0.629,0.174,1.039,0.265,1.23,0.273v0.971h-7.834V41.49c0.41-0.036,0.841-0.104,1.292-0.205c0.451-0.1,0.8-0.25,1.046-0.451
		c0.319-0.255,0.538-0.646,0.656-1.176c0.118-0.528,0.178-1.412,0.178-2.652V27.08c0-0.574-0.068-1.043-0.205-1.408
		c-0.137-0.364-0.333-0.66-0.588-0.889c-0.282-0.246-0.629-0.428-1.039-0.547c-0.41-0.118-0.815-0.187-1.217-0.205v-0.971h6.615
		l5.557,14.563l4.744-12.182c0.173-0.447,0.321-0.914,0.444-1.402s0.188-0.814,0.198-0.979h6.326v0.971
		c-0.255,0.01-0.581,0.051-0.978,0.123c-0.396,0.073-0.686,0.142-0.868,0.205c-0.31,0.109-0.52,0.292-0.629,0.547
		c-0.109,0.256-0.164,0.533-0.164,0.834v13.986c0,0.319,0.055,0.588,0.164,0.807s0.319,0.41,0.629,0.574
		c0.164,0.092,0.456,0.176,0.875,0.253s0.752,0.121,0.998,0.13V42.461z"/>
	<path fill="#666766" d="M236.729,36.746l-0.369,5.715h-16.105V41.49c0.273-0.018,0.638-0.057,1.094-0.116s0.752-0.12,0.889-0.185
		c0.292-0.137,0.494-0.314,0.608-0.533s0.171-0.496,0.171-0.834V25.877c0-0.301-0.05-0.567-0.15-0.8s-0.31-0.421-0.629-0.567
		c-0.246-0.118-0.576-0.223-0.991-0.314c-0.415-0.091-0.745-0.146-0.991-0.164v-0.971h15.012v4.676h-1.025
		c-0.183-0.692-0.576-1.429-1.183-2.208s-1.183-1.205-1.729-1.278c-0.282-0.036-0.62-0.063-1.012-0.082
		c-0.392-0.018-0.839-0.027-1.34-0.027h-3.049v7.711h2.188c0.702,0,1.215-0.066,1.538-0.198s0.608-0.353,0.854-0.663
		c0.2-0.264,0.371-0.617,0.513-1.06s0.234-0.858,0.28-1.251h1.025v7.602h-1.025c-0.036-0.438-0.135-0.9-0.294-1.388
		s-0.326-0.841-0.499-1.06c-0.282-0.355-0.604-0.588-0.964-0.697s-0.836-0.164-1.429-0.164h-2.188v5.814
		c0,0.582,0.041,1.042,0.123,1.379c0.082,0.336,0.241,0.592,0.479,0.764c0.237,0.174,0.561,0.285,0.971,0.335
		s0.993,0.075,1.75,0.075c0.301,0,0.697,0,1.189,0s0.907-0.018,1.244-0.055c0.347-0.036,0.704-0.103,1.073-0.198
		s0.631-0.226,0.786-0.39c0.419-0.438,0.859-1.101,1.319-1.989s0.754-1.542,0.882-1.962H236.729z"/>
	<path fill="#666766" d="M261.417,24.031c-0.255,0.01-0.647,0.082-1.176,0.219s-0.907,0.278-1.135,0.424
		c-0.328,0.229-0.549,0.666-0.663,1.313c-0.114,0.647-0.171,1.468-0.171,2.461v14.205h-1.189l-11.758-15.873v10.008
		c0,1.121,0.07,1.982,0.212,2.584s0.357,1.03,0.649,1.285c0.21,0.201,0.643,0.388,1.299,0.561c0.656,0.174,1.089,0.265,1.299,0.273
		v0.971h-7.957V41.49c0.246-0.018,0.661-0.107,1.244-0.267s0.948-0.303,1.094-0.431c0.319-0.255,0.538-0.645,0.656-1.169
		s0.178-1.419,0.178-2.687v-9.557c0-0.419-0.073-0.838-0.219-1.258c-0.146-0.419-0.342-0.742-0.588-0.971
		c-0.328-0.301-0.772-0.559-1.333-0.772s-1.014-0.33-1.36-0.349v-0.971h5.543l10.904,14.79v-9.227c0-1.13-0.073-1.998-0.219-2.604
		c-0.146-0.605-0.355-1.009-0.629-1.209c-0.255-0.174-0.672-0.342-1.251-0.506s-1.019-0.255-1.319-0.273v-0.971h7.889V24.031z"/>
	<path fill="#666766" d="M281.566,28.324h-0.943c-0.082-0.328-0.23-0.718-0.445-1.169s-0.454-0.877-0.72-1.278
		c-0.274-0.419-0.573-0.786-0.897-1.101s-0.637-0.494-0.938-0.54c-0.283-0.036-0.64-0.063-1.068-0.082
		c-0.43-0.018-0.827-0.027-1.192-0.027h-0.795v15.518c0,0.301,0.063,0.576,0.191,0.827s0.351,0.444,0.67,0.581
		c0.164,0.064,0.508,0.15,1.032,0.26s0.932,0.169,1.224,0.178v0.971h-9.16V41.49c0.255-0.018,0.645-0.055,1.169-0.109
		s0.887-0.123,1.087-0.205c0.301-0.118,0.521-0.289,0.663-0.513s0.212-0.521,0.212-0.896V24.127h-0.793
		c-0.282,0-0.634,0.007-1.053,0.021s-0.82,0.044-1.203,0.089c-0.301,0.037-0.613,0.217-0.937,0.54s-0.622,0.69-0.896,1.101
		s-0.515,0.846-0.725,1.306s-0.355,0.841-0.438,1.142h-0.957v-5.264h16.912V28.324z"/>
</g>
<g>
	<path fill="#993333" d="M134.197,8.632h-6.405V7.697c0.123-0.141,0.294-0.299,0.513-0.475s0.479-0.365,0.779-0.57
		c0.182-0.123,0.401-0.257,0.656-0.403s0.544-0.305,0.868-0.478c0.36-0.191,0.637-0.36,0.831-0.505
		c0.194-0.146,0.37-0.326,0.53-0.54c0.105-0.141,0.189-0.318,0.253-0.529c0.064-0.212,0.096-0.514,0.096-0.905
		c0-0.569-0.153-0.987-0.458-1.253c-0.305-0.266-0.697-0.399-1.176-0.399c-0.296,0-0.577,0.058-0.841,0.174
		s-0.462,0.277-0.595,0.482c0.032,0.146,0.072,0.319,0.12,0.52s0.072,0.396,0.072,0.588c0,0.173-0.072,0.327-0.215,0.461
		s-0.356,0.202-0.639,0.202c-0.228,0-0.403-0.079-0.526-0.236s-0.185-0.368-0.185-0.632c0-0.246,0.068-0.493,0.205-0.742
		s0.333-0.478,0.588-0.687c0.25-0.205,0.561-0.372,0.93-0.499s0.768-0.191,1.196-0.191c0.934,0,1.676,0.208,2.225,0.625
		s0.824,0.973,0.824,1.669c0,0.333-0.049,0.635-0.147,0.908c-0.098,0.273-0.256,0.514-0.475,0.724
		c-0.242,0.232-0.524,0.432-0.848,0.598c-0.324,0.167-0.818,0.397-1.483,0.693c-0.396,0.178-0.766,0.363-1.107,0.557
		c-0.342,0.194-0.622,0.381-0.841,0.563h5.257V8.632z"/>
	<path fill="#993333" d="M141.881,2.248c0.291,0.351,0.51,0.762,0.652,1.234c0.145,0.472,0.216,0.965,0.216,1.48
		c0,0.62-0.089,1.175-0.267,1.665s-0.422,0.896-0.731,1.22c-0.319,0.333-0.697,0.583-1.135,0.752s-0.925,0.253-1.463,0.253
		c-0.588,0-1.112-0.098-1.572-0.294s-0.834-0.465-1.121-0.807c-0.301-0.355-0.525-0.771-0.673-1.248s-0.222-0.99-0.222-1.542
		c0-0.542,0.072-1.042,0.215-1.497s0.368-0.868,0.673-1.237c0.292-0.355,0.667-0.636,1.128-0.841s0.987-0.308,1.579-0.308
		c0.625,0,1.16,0.105,1.606,0.314S141.584,1.888,141.881,2.248z M141.238,4.961c0-1.084-0.186-1.925-0.557-2.522
		s-0.876-0.896-1.514-0.896c-0.647,0-1.158,0.298-1.531,0.896s-0.561,1.438-0.561,2.522c0,1.03,0.179,1.858,0.537,2.485
		s0.872,0.94,1.542,0.94s1.185-0.313,1.545-0.94S141.238,5.991,141.238,4.961z"/>
	<path fill="#993333" d="M148.983,8.632h-4.607V8.147c0.137-0.009,0.35-0.028,0.64-0.058c0.289-0.03,0.488-0.061,0.598-0.092
		c0.141-0.045,0.25-0.12,0.324-0.222c0.076-0.103,0.113-0.256,0.113-0.461V2.514h-1.702V1.94h0.376c0.492,0,0.934-0.091,1.322-0.273
		c0.391-0.182,0.67-0.378,0.838-0.588h0.567c-0.014,0.296-0.027,0.643-0.041,1.039s-0.021,0.752-0.021,1.066v4.054
		c0,0.16,0.035,0.302,0.105,0.427c0.071,0.125,0.172,0.218,0.305,0.277c0.119,0.05,0.313,0.096,0.581,0.137s0.47,0.064,0.602,0.068
		V8.632z"/>
	<path fill="#993333" d="M152.798,11.127c-0.429,0-0.82-0.054-1.176-0.161s-0.661-0.252-0.916-0.434s-0.452-0.392-0.591-0.629
		c-0.14-0.237-0.209-0.481-0.209-0.731c0-0.223,0.055-0.425,0.164-0.605s0.285-0.27,0.526-0.27c0.273,0,0.481,0.067,0.626,0.202
		c0.143,0.134,0.215,0.288,0.215,0.461c0,0.146-0.023,0.331-0.072,0.554c-0.047,0.223-0.085,0.383-0.112,0.479
		c0.032,0.041,0.091,0.096,0.175,0.164s0.188,0.13,0.312,0.185c0.146,0.068,0.299,0.123,0.459,0.164
		c0.159,0.041,0.386,0.062,0.678,0.062c0.274,0,0.538-0.045,0.791-0.137s0.476-0.237,0.668-0.438c0.2-0.209,0.356-0.455,0.469-0.735
		s0.168-0.648,0.168-1.104c0-0.246-0.026-0.49-0.079-0.731s-0.149-0.451-0.291-0.629s-0.334-0.315-0.579-0.414
		c-0.244-0.098-0.554-0.147-0.929-0.147h-0.897V5.447h0.597c0.631,0,1.085-0.173,1.363-0.52c0.279-0.346,0.419-0.868,0.419-1.565
		c0-0.57-0.135-0.999-0.404-1.289s-0.651-0.434-1.144-0.434c-0.238,0-0.434,0.028-0.586,0.085c-0.154,0.057-0.277,0.113-0.374,0.167
		c-0.114,0.064-0.208,0.134-0.28,0.212c-0.074,0.078-0.129,0.134-0.165,0.171c0.032,0.146,0.071,0.325,0.116,0.537
		s0.068,0.414,0.068,0.605c0,0.168-0.072,0.32-0.215,0.455c-0.145,0.134-0.355,0.202-0.633,0.202c-0.242,0-0.418-0.086-0.529-0.26
		c-0.112-0.173-0.168-0.374-0.168-0.602c0-0.237,0.066-0.479,0.198-0.725s0.328-0.476,0.588-0.69s0.577-0.387,0.95-0.52
		s0.805-0.198,1.292-0.198c0.561,0,1.024,0.083,1.392,0.25c0.366,0.167,0.654,0.368,0.864,0.605
		c0.205,0.232,0.347,0.476,0.424,0.731s0.116,0.474,0.116,0.656c0,0.228-0.031,0.457-0.096,0.687s-0.168,0.443-0.314,0.639
		c-0.16,0.214-0.37,0.409-0.633,0.584c-0.262,0.175-0.591,0.318-0.987,0.427v0.109c0.255,0.023,0.527,0.08,0.817,0.171
		c0.289,0.091,0.55,0.226,0.782,0.403c0.241,0.187,0.44,0.427,0.595,0.721s0.232,0.667,0.232,1.118c0,0.875-0.352,1.585-1.053,2.129
		S153.851,11.127,152.798,11.127z"/>
</g>
<line fill="none" stroke="#666766" stroke-miterlimit="10" x1="124.409" y1="4.543" x2="3.219" y2="4.543"/>
<line fill="none" stroke="#666766" stroke-miterlimit="10" x1="281.014" y1="4.543" x2="159.824" y2="4.543"/>
</svg>
